<?xml version="1.0" encoding="UTF-8"?><svg id="Layer_1" xmlns="http://www.w3.org/2000/svg" viewBox="0 0 50 50"><defs><style>.cls-1{fill:#f77923;}.cls-2{fill:none;stroke:#d0d0d0;stroke-miterlimit:10;stroke-width:.25px;}</style></defs><path class="cls-2" d="M9.18,.5h31.65c4.8,0,8.68,3.98,8.68,8.9v31.2c0,4.92-3.88,8.9-8.68,8.9H9.18c-4.8,0-8.68-3.98-8.68-8.9V9.4C.5,4.48,4.38,.5,9.18,.5Z"/><g><path class="cls-1" d="M17.84,8.89c-.24,.14-.46,.26-.68,.38-1.47,.81-2.94,1.62-4.38,2.47-1.03,.61-1.87,1.4-2.5,2.44-.7,1.14-.53,2.25,.5,3.1,.76,.63,1.65,.99,2.56,1.28,1.14,.37,2.31,.54,3.5,.64,1.23,.1,2.46,.09,3.7,.06,1.16-.03,2.31-.15,3.46-.25,1.3-.12,2.59-.27,3.87-.51,2.74-.53,5.37-1.4,7.9-2.61,.91-.44,1.81-.91,2.59-1.57,.52-.44,1.01-.92,1.4-1.48,.79-1.13,.61-2.34-.47-3.2-.58-.46-1.25-.72-1.93-.95-1.13-.39-2.29-.67-3.44-.97-.18-.05-.35-.1-.54-.16,.05-.06,.09-.05,.12-.05,.97,0,1.94-.05,2.9-.09,.84-.03,1.69-.04,2.53-.02,1.37,.04,2.74,.19,4.05,.61,.76,.25,1.49,.56,2.07,1.15,.69,.7,.84,1.55,.46,2.47-.22,.54-.54,1-.93,1.43-.97,1.07-2.11,1.91-3.33,2.64-1.68,1-3.48,1.75-5.33,2.34-1.67,.54-3.36,1.03-5.06,1.47-1.9,.49-3.81,.89-5.75,1.17-1.2,.17-2.4,.33-3.61,.45-1.01,.1-2.02,.17-3.03,.21-1.01,.04-2.02,.09-3.04,.06-2.17-.05-4.32-.22-6.42-.8-1.05-.29-2.08-.65-3.02-1.23-.43-.27-.84-.57-1.16-.98-.65-.83-.72-1.79-.21-2.72,.35-.63,.84-1.14,1.37-1.61,1.9-1.71,4.1-2.85,6.46-3.72,1.67-.61,3.38-1.06,5.11-1.43,.08-.02,.15-.06,.28-.01Z"/><path class="cls-1" d="M41.82,21.7s-.07,.03-.09,.04c-1.3,.77-2.55,1.62-3.89,2.3-1.86,.94-3.77,1.74-5.71,2.5-2.23,.88-4.5,1.64-6.83,2.21-1.66,.41-3.34,.72-5.05,.92-1.7,.2-3.4,.26-5.1,.21-1.22-.04-2.43-.16-3.61-.53-1.53-.48-2.79-1.35-3.66-2.76-.57-.92-.54-1.57,.14-2.4,.28-.34,.6-.64,.94-.92,.09-.08,.15-.09,.22,.03,1.13,1.8,2.8,2.72,4.8,3.09,.72,.14,1.46,.2,2.19,.24,.8,.04,1.6,.04,2.4,.02,1.39-.02,2.78-.09,4.16-.22,4.19-.39,8.27-1.29,12.3-2.5,1.01-.3,2.01-.64,3.01-.95,.56-.18,1.09-.44,1.6-.74,.6-.35,1.23-.63,1.94-.62,.06,0,.13-.01,.23,.07Z"/><path class="cls-1" d="M19.97,36.89c-1-.02-2-.06-2.99-.19-.73-.1-1.38-.43-2-.81-.51-.31-1-.67-1.49-1.03-.18-.13-.24-.33-.24-.54-.01-.44,0-.89,0-1.34,0-.13,.07-.16,.18-.17,.95-.06,1.87,.02,2.76,.4,.79,.34,1.61,.46,2.46,.5,.95,.04,1.9,.04,2.85,.02,1.11-.02,2.21-.12,3.31-.25,1.93-.24,3.84-.62,5.72-1.13,1.61-.43,3.19-.95,4.75-1.53,.3-.11,.6-.18,.9-.28,.14-.04,.22,0,.26,.13,.01,.04,.03,.07,.05,.1,.1,.15,.07,.24-.09,.33-.6,.35-1.2,.71-1.8,1.06-1.17,.7-2.34,1.4-3.55,2.02-2.48,1.28-5.1,2.12-7.86,2.48-1.07,.14-2.14,.2-3.21,.22Z"/><path class="cls-1" d="M23.29,42.62c-.72-.03-1.43-.09-2.09-.4-.05-.03-.15-.03-.14-.1,0-.09,.1-.08,.16-.1,2.3-.78,4.59-1.56,6.89-2.34,1.05-.36,2.1-.71,3.15-1.07,.06-.02,.12-.08,.17-.02,.04,.05-.02,.11-.05,.16-.3,.61-.78,1.07-1.31,1.47-1.51,1.15-3.22,1.83-5.06,2.21-.57,.12-1.16,.16-1.73,.19Z"/></g></svg>