<?xml version="1.0" encoding="UTF-8"?><svg id="color" xmlns="http://www.w3.org/2000/svg" viewBox="0 0 50 50"><defs><style>.cls-1{fill:#001e36;}.cls-2{fill:#31a8ff;}</style></defs><g id="Layer_2"><path className="cls-1" d="M9.18,.5h31.65c4.8,0,8.68,3.98,8.68,8.9v31.2c0,4.92-3.88,8.9-8.68,8.9H9.18c-4.8,0-8.68-3.98-8.68-8.9V9.4C.5,4.48,4.38,.5,9.18,.5Z"/><g id="Lr"><path className="cls-2" d="M26.23,35.14H13.28c-.22,0-.33-.13-.33-.38V13.36c-.02-.15,.08-.27,.22-.29h4.08c.1-.02,.22,.06,.22,.17V30.88h9.43c.2,0,.27,.1,.22,.29l-.59,3.64c0,.1-.06,.19-.12,.25-.06,.04-.12,.06-.2,.06Z"/><path className="cls-2" d="M29.49,18.38h3.57c.2,0,.37,.15,.43,.34,.08,.15,.14,.31,.16,.48,.04,.21,.08,.44,.1,.65,.02,.23,.04,.48,.04,.75,.61-.73,1.35-1.34,2.18-1.8,.94-.52,1.98-.77,3.04-.75,.14-.02,.27,.08,.29,.23v4.17c0,.17-.1,.23-.33,.23-1.33-.08-2.65,.17-3.86,.71-.41,.19-.8,.44-1.1,.77v10.68c0,.21-.08,.29-.27,.29h-3.98c-.16,.02-.31-.08-.33-.25v-11.68c0-.5,0-1.03-.02-1.57s-.02-1.09-.04-1.63c-.02-.46-.06-.92-.12-1.38-.02-.1,.04-.21,.14-.23,.02-.02,.04-.02,.08,0h0Z"/></g></g></svg>