<?xml version="1.0" encoding="UTF-8"?><svg id="b_w" xmlns="http://www.w3.org/2000/svg" viewBox="0 0 50 50"><defs><style>.cls-1{fill:#fff;}.cls-2{fill:#7c7c7c;}.cls-3{fill:#d2d2d2;}</style></defs><g id="Layer_2"><path className="cls-3" d="M9.18,.5h31.65c4.8,0,8.68,3.98,8.68,8.9v31.2c0,4.92-3.88,8.9-8.68,8.9H9.18c-4.8,0-8.68-3.98-8.68-8.9V9.4C.5,4.48,4.38,.5,9.18,.5Z"/><g id="Dw"><g><path className="cls-1" d="M9.24,35.27c-.82,0-1.59,0-2.29-.02l-.81-.02c-.33,0-.59-.01-.79-.02h0c-.1,0-.27-.05-.27-.41V13.36c-.03-.15,.1-.32,.27-.35,.33-.02,.81-.04,1.4-.04,.32-.01,.67-.02,1.05-.02,.33,0,.69,0,1.07-.02,.82-.02,1.67-.02,2.59-.02,2.51,0,4.61,.47,6.24,1.39,1.59,.87,2.88,2.19,3.72,3.82,.82,1.62,1.23,3.5,1.23,5.58,.02,1.5-.19,2.95-.64,4.32-.39,1.18-.99,2.28-1.77,3.25-.71,.87-1.56,1.63-2.53,2.26-.9,.58-1.92,1.02-3.02,1.33-1.05,.28-2.11,.42-3.16,.42h-2.31Zm.3-4.25c.2,0,.38,0,.57,.02,.09,.01,.18,.02,.28,.02,.1,0,.2,.01,.29,.02,.2,.02,.42,.02,.66,.02h.16c.87,0,1.74-.16,2.59-.48,.79-.29,1.5-.76,2.12-1.4,.6-.66,1.07-1.46,1.35-2.3,.32-.99,.49-2.04,.49-3.12,.02-.99-.14-1.98-.46-2.93-.56-1.6-1.85-2.85-3.44-3.35-.85-.26-1.69-.4-2.5-.4h-.17c-.41,0-.75,0-1.04,.02-.27,0-.58,.02-.9,.04v13.82Z"/><path className="cls-2" d="M11.46,12.98c2.49,0,4.57,.46,6.21,1.38,1.57,.86,2.86,2.18,3.7,3.79,.82,1.61,1.23,3.46,1.23,5.55,.02,1.47-.18,2.91-.63,4.29-.39,1.17-.98,2.26-1.76,3.22-.71,.88-1.57,1.63-2.51,2.24-.92,.59-1.94,1.03-3,1.32-1.02,.27-2.08,.42-3.14,.42h-2.31c-.82,0-1.59,0-2.29-.02-.71-.02-1.25-.02-1.59-.04-.14,0-.2-.13-.2-.34V13.36c-.02-.13,.08-.25,.2-.27h.02c.31-.02,.78-.04,1.37-.04,.61-.02,1.31-.02,2.12-.04,.82-.02,1.67-.02,2.59-.02m.03,18.2c.89,0,1.77-.17,2.62-.48,.82-.29,1.53-.77,2.14-1.42,.61-.67,1.08-1.47,1.37-2.32,.33-1.01,.49-2.07,.49-3.14,.02-1.01-.14-2.01-.47-2.95-.57-1.63-1.86-2.89-3.49-3.39-.82-.26-1.66-.4-2.52-.4-.06,0-.12,0-.17,0-.41,0-.76,0-1.04,.02-.29,0-.61,.02-.96,.04v13.97c.22,0,.43,0,.63,.02,.18,.02,.39,.02,.57,.04,.2,.02,.43,.02,.67,.02,.05,0,.1,0,.16,0m-.03-18.35c-.91,0-1.78,0-2.6,.02-.38,0-.73,.01-1.06,.02-.38,0-.74,.01-1.07,.02h0c-.62,0-1.09,.02-1.37,.04-.24,.04-.4,.24-.36,.45v21.42c0,.44,.25,.49,.35,.49,.2,.01,.46,.02,.79,.02,.23,0,.5,0,.79,.02,.7,.02,1.47,.02,2.29,.02h2.31c1.06,0,2.13-.14,3.18-.42,1.11-.31,2.13-.76,3.04-1.34,.98-.63,1.84-1.4,2.55-2.27,.79-.98,1.39-2.08,1.78-3.27,.45-1.37,.66-2.83,.64-4.34,0-2.1-.42-3.99-1.24-5.61-.85-1.65-2.15-2.98-3.76-3.85-1.65-.93-3.76-1.4-6.28-1.4h0Zm-1.85,4.44c.29-.02,.57-.03,.81-.03,.29-.02,.64-.02,1.04-.02,.06,0,.12,0,.17,0,.8,0,1.64,.13,2.48,.39,1.57,.48,2.84,1.72,3.39,3.3,.33,.94,.48,1.92,.46,2.9,0,1.07-.16,2.11-.48,3.1-.28,.83-.74,1.62-1.34,2.27-.6,.64-1.3,1.1-2.08,1.38-.84,.32-1.71,.47-2.57,.47h-.15c-.24,0-.47,0-.66-.02-.09-.01-.19-.02-.29-.02-.09,0-.19-.01-.28-.02-.17-.02-.33-.02-.5-.02v-13.68h0Z"/></g><g><path className="cls-1" d="M27.48,35.22c-.1,0-.2-.04-.26-.08-.09-.09-.13-.18-.18-.26l-3.99-16.2c-.03-.1-.03-.19,.02-.26,.05-.07,.15-.11,.3-.11h3.86c.23,0,.36,.09,.38,.27,.41,1.84,.75,3.43,1.02,4.77,.27,1.36,.49,2.48,.63,3.42,.11,.73,.22,1.36,.31,1.88l.07,.42c.09,.52,.17,.98,.22,1.33l.02,.13c-.05-.33,0-.65,.06-.99,.08-.4,.18-.92,.31-1.57,.12-.65,.26-1.4,.45-2.28l.63-3.06c.24-1.26,.61-2.71,.94-3.96,0-.06,.03-.16,.09-.29,.03-.07,.13-.11,.29-.11h4c.11,0,.24,.05,.28,.3,.35,1.52,.63,2.86,.88,4.02,.22,1.15,.43,2.18,.61,3.08,.16,.88,.31,1.66,.39,2.29,.08,.59,.17,1.08,.24,1.5l.02,.11c.04,.26,.09,.53,.12,.79,.07-.35,.14-.79,.2-1.2,.08-.57,.18-1.2,.33-1.91,.12-.71,.26-1.49,.43-2.35,.12-.75,.3-1.57,.49-2.48l.14-.65c.21-.98,.44-2.04,.7-3.17,.05-.22,.16-.33,.34-.33h3.57c.11,0,.19,.03,.24,.09,.05,.07,.07,.17,.04,.29l-4.41,16.15c-.02,.1-.07,.19-.14,.26,.02,.07-.06,.15-.19,.15,0,0-3.88,0-3.89,0-.12,0-.21-.04-.28-.11-.07-.1-.12-.19-.14-.29-.39-1.68-.71-3.18-.98-4.46l-.06-.29c-.24-1.17-.44-2.17-.59-3-.16-.9-.31-1.65-.43-2.28,0,0-.19-1.08-.21-1.25-.1,.48-.5,2.34-.5,2.34-.16,.86-.37,1.74-.57,2.62-.2,.88-.43,1.84-.69,2.89-.24,1.03-.52,2.17-.82,3.38-.06,.31-.19,.44-.41,.44h-3.82l-.06-.07v.08Z"/><path className="cls-2" d="M45.4,18.34c.18,0,.24,.1,.2,.29l-4.41,16.14c-.02,.08-.06,.17-.12,.23,0,.09-.06,.13-.13,.13-.02,0-.03,0-.05,0h-3.82s-.03,0-.04,0c-.07,0-.15-.04-.2-.09-.06-.08-.1-.17-.12-.25-.39-1.68-.71-3.18-.98-4.46-.27-1.3-.49-2.39-.65-3.29-.16-.9-.31-1.65-.43-2.28-.1-.63-.2-1.15-.27-1.59h-.02c-.2,.92-.39,1.82-.57,2.68-.16,.86-.37,1.74-.57,2.62-.2,.88-.43,1.84-.69,2.89-.25,1.05-.53,2.2-.84,3.43-.04,.23-.14,.34-.33,.34h-3.82s-.04,0-.06,0c-.08,0-.16-.03-.23-.07-.06-.06-.1-.15-.14-.23l-3.98-16.19c-.06-.19,.02-.27,.25-.27h3.86c.18,0,.29,.06,.31,.21,.41,1.84,.76,3.43,1.02,4.77,.27,1.34,.49,2.47,.63,3.41s.29,1.72,.39,2.3c.1,.59,.18,1.09,.24,1.47h.06c.04-.34,.08-.65,.14-.98,.08-.4,.18-.92,.31-1.57,.12-.65,.27-1.4,.45-2.28,.18-.88,.39-1.88,.63-3.06,.22-1.15,.55-2.47,.94-3.96,0-.08,.04-.19,.08-.27,.02-.04,.1-.06,.22-.06h4c.12,0,.18,.08,.2,.23,.35,1.53,.63,2.87,.88,4.02,.22,1.15,.43,2.18,.61,3.08,.16,.88,.31,1.65,.39,2.28,.08,.65,.18,1.17,.27,1.61,.06,.36,.12,.71,.14,1.07h.06c.1-.42,.18-.92,.27-1.49,.08-.57,.18-1.19,.33-1.91,.12-.71,.27-1.49,.43-2.35,.14-.86,.35-1.8,.57-2.87,.22-1.05,.47-2.2,.76-3.43,.04-.19,.12-.27,.27-.27h3.57m0-.15h-3.57c-.22,0-.36,.13-.41,.39-.26,1.13-.5,2.22-.7,3.18l-.05,.26-.08,.39c-.2,.93-.37,1.73-.49,2.49-.16,.86-.31,1.63-.43,2.34-.12,.62-.23,1.23-.33,1.91-.03,.24-.07,.5-.12,.75-.02-.11-.04-.22-.06-.34l-.02-.13c-.08-.42-.17-.89-.24-1.47-.08-.65-.24-1.48-.39-2.29-.18-.9-.39-1.93-.61-3.08-.22-1.03-.52-2.44-.88-4.03-.04-.31-.26-.35-.35-.35h-4c-.12,0-.3,.02-.36,.15-.06,.12-.09,.23-.1,.32-.33,1.25-.69,2.7-.94,3.95-.13,.63-.25,1.21-.36,1.75l-.27,1.31c-.18,.88-.33,1.64-.45,2.29-.12,.65-.22,1.17-.31,1.57-.01,.07-.03,.14-.04,.21-.04-.21-.07-.44-.12-.69l-.07-.38c-.09-.53-.21-1.17-.32-1.92-.14-.93-.36-2.06-.62-3.36v-.06c-.27-1.31-.61-2.86-1.03-4.78-.02-.11-.1-.33-.45-.33h-3.86c-.06,0-.26,0-.36,.14-.06,.09-.07,.2-.03,.33l3.98,16.18c.05,.12,.1,.22,.18,.3l.02,.02h.02c.08,.05,.18,.1,.3,.1,.03,0,.06,0,.09,0h3.79c.18,0,.41-.08,.47-.46l.02-.07c.3-1.21,.58-2.33,.82-3.35,.26-1.01,.47-1.94,.69-2.89,.2-.87,.41-1.76,.57-2.62l.2-.93c.07-.34,.14-.68,.22-1.03l.03,.14c.04,.22,.08,.46,.12,.72,.12,.63,.27,1.39,.43,2.29,.15,.83,.35,1.82,.59,2.98l.06,.31c.31,1.48,.64,2.98,.98,4.46,.03,.1,.07,.21,.15,.31,.09,.1,.21,.15,.32,.15,.02,0,.04,0,.06,0h3.8s.02,0,.05,0c.15,0,.25-.09,.28-.22,.06-.07,.1-.16,.12-.26l4.41-16.14c.03-.16,.02-.28-.05-.36-.06-.08-.16-.12-.3-.12h0Z"/></g></g></g></svg>