<?xml version="1.0" encoding="UTF-8"?><svg id="color" xmlns="http://www.w3.org/2000/svg" viewBox="0 0 50 50"><defs><style>.cls-1{fill:#ff9a00;}.cls-2{fill:#300;}</style></defs><g id="Layer_2"><path class="cls-2" d="M9.18,.5h31.65c4.8,0,8.68,3.98,8.68,8.9v31.2c0,4.92-3.88,8.9-8.68,8.9H9.18c-4.8,0-8.68-3.98-8.68-8.9V9.4C.5,4.48,4.38,.5,9.18,.5Z"/><g id="Ai"><path class="cls-1" d="M24.24,29.9h-7.6l-1.55,4.92c-.04,.19-.2,.31-.39,.29h-3.84c-.22,0-.29-.13-.22-.38l6.57-19.41c.06-.21,.12-.44,.2-.69,.08-.44,.12-.9,.12-1.36-.02-.1,.06-.21,.16-.23h5.29c.16,0,.24,.06,.27,.17l7.45,21.57c.06,.23,0,.34-.2,.34h-4.27c-.14,.02-.29-.08-.33-.23l-1.67-4.98Zm-6.41-4.25h5.19c-.12-.44-.29-.96-.47-1.51-.18-.57-.37-1.17-.55-1.8-.2-.65-.39-1.28-.59-1.93s-.39-1.26-.55-1.86c-.16-.59-.31-1.13-.45-1.63h-.04c-.18,.9-.41,1.8-.69,2.7-.31,1.01-.61,2.05-.94,3.1-.29,1.07-.59,2.05-.9,2.93h0Z"/><path class="cls-1" d="M35.17,16.62c-.67,.02-1.33-.25-1.82-.73-.47-.52-.71-1.21-.69-1.93-.02-.71,.24-1.38,.74-1.86,.49-.48,1.14-.73,1.82-.73,.8,0,1.41,.25,1.86,.73,.45,.5,.69,1.17,.67,1.86,.02,.71-.22,1.4-.71,1.93-.47,.5-1.16,.77-1.86,.73Zm-2.29,18.18V18.68c0-.21,.08-.29,.27-.29h4.04c.18,0,.27,.1,.27,.29v16.12c0,.23-.08,.34-.27,.34h-4c-.2,0-.31-.13-.31-.34Z"/></g></g></svg>