<?xml version="1.0" encoding="UTF-8"?><svg id="b_w" xmlns="http://www.w3.org/2000/svg" viewBox="0 0 50 50"><defs><style>.cls-1{fill:#fff;}.cls-2{fill:#7c7c7c;}.cls-3{fill:#d0d0d0;}</style></defs><path class="cls-3" d="M9.18,.5h31.65c4.8,0,8.68,3.98,8.68,8.9v31.2c0,4.92-3.88,8.9-8.68,8.9H9.18c-4.8,0-8.68-3.98-8.68-8.9V9.4C.5,4.48,4.38,.5,9.18,.5Z"/><g><g><path class="cls-1" d="M15.43,21.48c-1.8-.04-4.15-.17-6.44-.8-.87-.24-2-.6-3.04-1.24-.52-.32-.89-.64-1.18-1-.67-.85-.74-1.85-.21-2.8,.38-.68,.91-1.21,1.38-1.63,1.71-1.54,3.83-2.76,6.48-3.73,1.52-.55,3.14-1.01,5.12-1.43,.08-.02,.13-.04,.18-.04,.04,0,.09,0,.13,.02l.16,.05-1.2,.68c-1.32,.73-2.68,1.48-4,2.26-1.06,.63-1.87,1.41-2.48,2.41-.68,1.12-.51,2.18,.48,3,.79,.65,1.72,1.01,2.54,1.27,.99,.32,2.09,.52,3.48,.63,.68,.06,1.4,.08,2.21,.08,.49,0,.98,0,1.47-.02,1.07-.03,2.16-.13,3.22-.23l.24-.02c1.06-.1,2.46-.24,3.86-.51,2.73-.52,5.38-1.4,7.88-2.6,.82-.39,1.76-.87,2.58-1.56,.61-.51,1.05-.98,1.39-1.47,.77-1.1,.6-2.26-.45-3.1-.57-.46-1.26-.71-1.91-.94-.92-.32-1.87-.56-2.79-.8l-.64-.17c-.12-.03-.65-.19-.65-.19l.07-.09c.04-.05,.09-.08,.15-.08h.15c.7,0,1.39-.03,2.08-.06l.7-.03c.54-.02,1.08-.03,1.62-.03,.3,0,.61,0,.91,.01,1.62,.04,2.92,.24,4.08,.62,.69,.22,1.48,.54,2.1,1.17,.71,.72,.87,1.6,.48,2.55-.21,.51-.52,.98-.94,1.45-.87,.96-1.97,1.83-3.35,2.66-1.56,.93-3.31,1.7-5.35,2.35-1.68,.54-3.38,1.03-5.07,1.47-1.93,.5-3.87,.9-5.76,1.17-1.33,.19-2.51,.34-3.62,.45-1.09,.11-2.09,.18-3.03,.21h-.13c-.78,.04-1.56,.07-2.34,.07-.19,0-.38,0-.57,0Z"/><path class="cls-2" d="M38.02,7.38c.3,0,.6,0,.9,.01,1.37,.04,2.74,.19,4.05,.61,.76,.25,1.49,.56,2.07,1.15,.69,.7,.84,1.55,.46,2.47-.22,.54-.54,1-.93,1.43-.97,1.07-2.11,1.91-3.33,2.64-1.68,1-3.48,1.75-5.33,2.34-1.67,.54-3.36,1.03-5.06,1.47-1.9,.49-3.81,.89-5.75,1.17-1.2,.17-2.4,.33-3.61,.45-1.01,.1-2.02,.17-3.03,.21-.82,.03-1.64,.07-2.47,.07-.19,0-.38,0-.57,0-2.17-.05-4.32-.22-6.42-.8-1.05-.29-2.08-.65-3.02-1.23-.43-.27-.84-.57-1.16-.98-.65-.83-.72-1.79-.21-2.72,.35-.63,.84-1.14,1.37-1.61,1.9-1.71,4.1-2.85,6.46-3.72,1.67-.61,3.38-1.06,5.11-1.43,.05-.01,.1-.03,.17-.03,.03,0,.07,0,.11,.02-.24,.14-.46,.26-.68,.38-1.47,.81-2.94,1.62-4.38,2.47-1.03,.61-1.87,1.4-2.5,2.44-.7,1.14-.53,2.25,.5,3.1,.76,.63,1.65,.99,2.56,1.28,1.14,.37,2.31,.54,3.5,.64,.74,.06,1.48,.08,2.22,.08,.49,0,.98,0,1.47-.02,1.16-.03,2.31-.15,3.46-.25,1.3-.12,2.59-.27,3.87-.51,2.74-.53,5.37-1.4,7.9-2.61,.91-.44,1.81-.91,2.59-1.57,.52-.44,1.01-.92,1.4-1.48,.79-1.13,.61-2.34-.47-3.2-.58-.46-1.25-.72-1.93-.95-1.13-.39-2.29-.67-3.44-.97-.18-.05-.35-.1-.54-.16,.03-.04,.06-.05,.09-.05h.17c.92,0,1.84-.05,2.76-.09,.54-.02,1.08-.03,1.62-.03m0-.15c-.52,0-1.05,.01-1.63,.03l-.69,.03c-.68,.03-1.38,.06-2.07,.06h-.14c-.11,0-.18,.04-.24,.11l-.14,.18,.21,.06,.18,.05c.13,.04,.25,.07,.37,.1l.63,.16c.92,.24,1.88,.49,2.8,.8,.64,.22,1.32,.48,1.88,.93,1.02,.81,1.18,1.93,.44,3-.34,.49-.78,.95-1.37,1.45-.8,.68-1.74,1.16-2.56,1.55-2.5,1.2-5.14,2.07-7.86,2.6-1.39,.27-2.79,.41-3.85,.51l-.23,.02c-1.05,.1-2.15,.2-3.22,.23-.49,.01-.98,.02-1.47,.02-.81,0-1.53-.03-2.21-.08-1.38-.11-2.48-.31-3.47-.63-.81-.26-1.73-.61-2.51-1.25-.96-.79-1.13-1.83-.47-2.9,.6-.98,1.41-1.76,2.45-2.38,1.3-.77,2.65-1.52,3.95-2.24l.42-.23c.15-.08,.3-.17,.45-.25l.23-.13,.29-.16-.31-.11c-.05-.02-.11-.03-.16-.03-.07,0-.12,.01-.16,.03h-.04c-1.98,.43-3.61,.89-5.13,1.44-2.67,.98-4.8,2.2-6.51,3.74-.48,.43-1.01,.96-1.4,1.65-.54,.99-.46,2.01,.22,2.89,.29,.37,.67,.7,1.2,1.02,1.05,.65,2.19,1.01,3.06,1.25,2.3,.64,4.66,.76,6.46,.8,.19,0,.38,0,.57,0,.77,0,1.56-.03,2.32-.06h.15c.95-.04,1.94-.11,3.04-.22,1.09-.11,2.28-.25,3.62-.45,1.88-.27,3.82-.67,5.77-1.17,1.68-.44,3.39-.93,5.07-1.47,2.04-.65,3.8-1.42,5.36-2.36,1.39-.83,2.49-1.7,3.37-2.67,.43-.47,.74-.95,.95-1.47,.4-.97,.23-1.88-.5-2.63-.63-.65-1.43-.97-2.13-1.19-1.17-.38-2.47-.58-4.1-.62-.3,0-.6-.01-.91-.01h0Z"/></g><g><path class="cls-1" d="M16.28,29.97c-.38,0-.75,0-1.13-.02-1.48-.05-2.6-.21-3.63-.54-1.65-.52-2.86-1.43-3.7-2.79-.58-.95-.54-1.64,.14-2.49,.25-.3,.55-.6,.95-.93,.05-.04,.1-.08,.16-.08,.09,0,.14,.07,.17,.12,1.03,1.65,2.59,2.65,4.75,3.06,.62,.12,1.29,.19,2.18,.24,.46,.03,.92,.03,1.38,.03,.34,0,.67,0,1.01-.01,1.51-.03,2.87-.1,4.15-.21,3.85-.36,7.87-1.17,12.29-2.49,.69-.21,1.38-.43,2.07-.65l.94-.3c.49-.16,.99-.39,1.58-.73,.5-.29,1.18-.63,1.96-.63h.02c.12,0,.19,.01,.28,.08l.1,.08-.12,.05c-.51,.29-.94,.56-1.37,.82-.84,.52-1.71,1.06-2.6,1.51-2.04,1.03-4.13,1.88-5.71,2.5-2.4,.95-4.64,1.67-6.84,2.21-1.67,.41-3.38,.72-5.06,.92-1.29,.15-2.63,.23-3.99,.23Z"/><path class="cls-2" d="M41.64,21.63s.1,0,.18,.07c-.04,.02-.07,.03-.09,.04-1.3,.77-2.55,1.62-3.89,2.3-1.86,.94-3.77,1.74-5.71,2.5-2.23,.88-4.5,1.64-6.83,2.21-1.66,.41-3.34,.72-5.05,.92-1.32,.16-2.64,.23-3.97,.23-.38,0-.75,0-1.13-.02-1.22-.04-2.43-.16-3.61-.53-1.53-.48-2.79-1.35-3.66-2.76-.57-.92-.54-1.57,.14-2.4,.28-.34,.6-.64,.94-.92,.04-.04,.08-.06,.12-.06,.04,0,.07,.03,.11,.09,1.13,1.8,2.8,2.72,4.8,3.09,.72,.14,1.46,.2,2.19,.24,.46,.03,.92,.03,1.38,.03,.34,0,.68,0,1.01-.01,1.39-.02,2.78-.09,4.16-.22,4.19-.39,8.27-1.29,12.3-2.5,1.01-.3,2.01-.64,3.01-.95,.56-.18,1.09-.44,1.6-.74,.6-.35,1.22-.62,1.92-.62h.07m0-.15h-.03l-.02,.15-.02-.15c-.79,0-1.48,.34-2,.64-.58,.34-1.08,.57-1.57,.72-.31,.1-.62,.2-.93,.3-.69,.22-1.38,.45-2.08,.65-4.4,1.32-8.42,2.13-12.27,2.49-1.27,.12-2.63,.19-4.15,.22-.34,0-.67,.01-1.01,.01-.51,0-.96-.01-1.37-.03-.88-.05-1.55-.12-2.17-.24-2.15-.4-3.68-1.39-4.7-3.03-.06-.1-.14-.16-.24-.16-.09,0-.16,.05-.21,.09-.41,.34-.71,.64-.96,.94-.71,.87-.75,1.6-.15,2.57,.85,1.37,2.07,2.29,3.74,2.82,1.04,.33,2.17,.49,3.65,.54,.38,.01,.76,.02,1.14,.02,1.35,0,2.69-.08,3.99-.23,1.68-.2,3.38-.51,5.06-.92,2.2-.54,4.44-1.27,6.85-2.21,1.59-.62,3.67-1.47,5.72-2.51,.9-.45,1.77-.99,2.61-1.52,.43-.27,.86-.53,1.29-.79l.07-.03,.23-.1-.2-.15c-.11-.09-.21-.1-.27-.1h0Z"/></g><g><path class="cls-1" d="M19.97,36.97c-.91-.02-1.96-.05-3-.19-.76-.1-1.43-.45-2.03-.82-.47-.28-.91-.61-1.35-.93l-.14-.11c-.18-.13-.27-.33-.28-.6,0-.29,0-.57,0-.86v-.48c0-.22,.17-.23,.25-.24,.19-.01,.37-.02,.55-.02,.84,0,1.57,.14,2.24,.43,.69,.3,1.47,.46,2.44,.49,.6,.02,1.21,.03,1.81,.03,.35,0,.69,0,1.04-.01,.99-.02,2.07-.1,3.3-.25,1.84-.23,3.76-.61,5.71-1.13,1.5-.4,3.05-.9,4.74-1.53,.18-.07,.36-.12,.55-.17,.12-.04,.24-.07,.36-.11l.12-.02c.11,0,.19,.07,.24,.2,.1,.17,.12,.25,.11,.32-.02,.1-.11,.16-.18,.2-.49,.28-.98,.58-1.47,.87l-.33,.2c-1.14,.68-2.32,1.39-3.55,2.02-2.51,1.29-5.16,2.13-7.88,2.49-.97,.13-1.99,.2-3.22,.23h0Z"/><path class="cls-2" d="M36.26,30.52c.08,0,.13,.05,.17,.15,.01,.04,.03,.07,.05,.1,.1,.15,.07,.24-.09,.33-.6,.35-1.2,.71-1.8,1.06-1.17,.7-2.34,1.4-3.55,2.02-2.48,1.28-5.1,2.12-7.86,2.48-1.07,.14-2.14,.2-3.21,.22-1-.02-2-.06-2.99-.19-.73-.1-1.38-.43-2-.81-.51-.31-1-.67-1.49-1.03-.18-.13-.24-.33-.24-.54-.01-.44,0-.89,0-1.34,0-.13,.07-.16,.18-.17,.19-.01,.37-.02,.55-.02,.75,0,1.49,.11,2.2,.42,.79,.34,1.61,.46,2.46,.5,.6,.02,1.21,.03,1.81,.03,.35,0,.69,0,1.04-.01,1.11-.02,2.21-.12,3.31-.25,1.93-.24,3.84-.62,5.72-1.13,1.61-.43,3.19-.95,4.75-1.53,.3-.11,.6-.18,.9-.28,.04-.01,.07-.02,.1-.02m0-.15s-.09,0-.14,.03c-.12,.04-.24,.07-.36,.11-.18,.05-.37,.11-.55,.17-1.69,.63-3.24,1.13-4.74,1.53-1.94,.52-3.86,.9-5.7,1.13-1.25,.15-2.3,.23-3.29,.25-.35,0-.69,.01-1.04,.01-.61,0-1.21-.01-1.8-.03-.96-.04-1.73-.19-2.41-.48-.68-.29-1.42-.43-2.26-.43-.19,0-.37,0-.56,.02-.21,.01-.32,.12-.32,.32,0,.17,0,.33,0,.5,0,.28,0,.56,0,.84,0,.3,.11,.51,.31,.66l.17,.12c.43,.31,.87,.63,1.33,.91,.61,.37,1.28,.73,2.06,.83,1.05,.14,2.1,.17,3.01,.19,1.22-.02,2.28-.1,3.24-.23,2.73-.36,5.4-1.2,7.91-2.5,1.23-.63,2.41-1.34,3.55-2.02l.32-.19c.49-.29,.98-.59,1.47-.87,.08-.05,.19-.12,.22-.25,.02-.09,0-.19-.08-.3-.01-.02-.02-.04-.03-.07-.07-.22-.23-.25-.31-.25h0Z"/></g><g><path class="cls-1" d="M23.29,42.69c-.69-.03-1.43-.09-2.12-.41-.09-.03-.19-.06-.19-.17,0-.12,.12-.15,.17-.16l10.08-3.42c.06-.03,.1-.05,.14-.05h.04l.07,.06c.06,.08,0,.16-.02,.21-.29,.57-.7,1.03-1.35,1.53-1.42,1.08-3.09,1.81-5.08,2.22-.55,.11-1.09,.16-1.74,.19h0Z"/><path class="cls-2" d="M31.38,38.56s.04,0,.05,.03c.04,.05-.02,.11-.05,.16-.3,.61-.78,1.07-1.31,1.47-1.51,1.15-3.22,1.83-5.06,2.21-.57,.12-1.16,.16-1.73,.19-.72-.03-1.43-.09-2.09-.4-.05-.03-.15-.03-.14-.1,0-.09,.1-.08,.16-.1,2.3-.78,4.59-1.56,6.89-2.34,1.05-.36,2.1-.71,3.15-1.07,.04-.01,.08-.04,.12-.04m0-.15c-.06,0-.11,.02-.14,.04-1.07,.36-2.12,.72-3.17,1.08-2.3,.78-4.59,1.56-6.89,2.34-.09,.02-.26,.06-.26,.24,0,.17,.15,.22,.2,.23,.73,.34,1.47,.39,2.17,.43,.54-.03,1.16-.07,1.77-.19,2.01-.42,3.69-1.15,5.12-2.24,.66-.5,1.08-.97,1.35-1.53,.04-.07,.12-.2,.03-.32-.04-.06-.1-.09-.17-.09h0Z"/></g></g></svg>