<?xml version="1.0" encoding="UTF-8"?><svg id="Layer_1" xmlns="http://www.w3.org/2000/svg" viewBox="0 0 50 50"><defs><style>.cls-1{fill:#fff;}.cls-2{fill:#7c7c7c;}.cls-3{fill:#d0d0d0;}</style></defs><path class="cls-3" d="M9.18,.5h31.65c4.8,0,8.68,3.98,8.68,8.9v31.2c0,4.92-3.88,8.9-8.68,8.9H9.18c-4.8,0-8.68-3.98-8.68-8.9V9.4C.5,4.48,4.38,.5,9.18,.5Z"/><g><g><path class="cls-1" d="M26,45.08c-11.82,0-20.08-4.14-20.08-10.08s7.87-12.08,19.58-12.08,18.58,6.14,18.58,12.08-6.93,10.08-18.08,10.08Z"/><path class="cls-2" d="M25.5,23c11.32,0,18.5,5.92,18.5,12s-6.68,10-18,10-20-3.92-20-10,8.18-12,19.5-12m0-.15c-11.75,0-19.65,6.28-19.65,12.15s8.29,10.15,20.15,10.15c11.2,0,18.15-3.89,18.15-10.15s-6.98-12.15-18.65-12.15h0Z"/></g><g><path class="cls-1" d="M17.06,38.8c-.35,0-.66-.22-.79-.55-.13-.34-.04-.7,.23-.94,1.38-1.24,5.61-2.81,8.48-3.38,.93-.19,2.31-.28,4.09-.28,3.26,0,6.88,.32,8.64,.61,.35,.06,.51,.34,.5,.6,0,.25-.16,.53-.5,.59-.55,.09-1.52,.18-2.75,.3-2.6,.25-6.53,.64-9.96,1.33-2.09,.42-3.76,.81-5.09,1.12-1.12,.26-2,.47-2.7,.59-.05,0-.11,.01-.16,.01Z"/><path class="cls-2" d="M29.08,33.72c3.13,0,6.79,.3,8.63,.61,.59,.1,.59,.94,0,1.04-1.75,.28-7.71,.63-12.71,1.63-3.86,.77-6.27,1.45-7.79,1.72-.05,0-.1,.01-.14,.01-.68,0-1.05-.87-.51-1.36,1.36-1.23,5.57-2.79,8.45-3.37,1-.2,2.47-.28,4.08-.28m0-.15c-1.79,0-3.17,.1-4.11,.28-2.88,.58-7.13,2.15-8.52,3.4-.29,.26-.39,.66-.25,1.02,.14,.36,.48,.6,.86,.6,.05,0,.11,0,.17-.01,.7-.12,1.59-.33,2.71-.59,1.33-.31,3-.7,5.09-1.12,3.42-.68,7.35-1.07,9.95-1.32,1.23-.12,2.2-.22,2.75-.3,.39-.06,.57-.38,.57-.66,0-.34-.23-.62-.57-.67-1.76-.3-5.39-.61-8.65-.61h0Z"/></g><g><path class="cls-1" d="M15.08,30.89c-.35,0-.66-.21-.79-.55-.13-.33-.05-.69,.22-.94,1.36-1.26,5.58-2.88,8.44-3.48,1-.21,1.95-.32,2.91-.32,1.37,0,2.63,.2,4.1,.44l.72,.12c.35,.05,.51,.34,.51,.59,0,.25-.15,.53-.5,.59-.83,.14-1.49,.3-2.49,.54-1.09,.26-2.59,.63-5.19,1.18-2.09,.44-3.75,.86-5.08,1.19-1.12,.28-2,.5-2.69,.62-.06,0-.11,.01-.17,.01Z"/><path class="cls-2" d="M25.87,25.68c1.58,0,3.04,.27,4.81,.55,.59,.09,.6,.94,.01,1.04-1.75,.3-2.7,.66-7.69,1.72-3.85,.82-6.26,1.53-7.77,1.81-.05,0-.1,.01-.15,.01-.68,0-1.05-.86-.52-1.36,1.35-1.24,5.54-2.86,8.4-3.47,1.06-.23,2-.31,2.9-.31m0-.15c-.97,0-1.92,.1-2.93,.32-2.87,.61-7.1,2.24-8.48,3.5-.29,.27-.38,.66-.24,1.02,.14,.36,.48,.6,.86,.6,.06,0,.12,0,.18-.02,.7-.13,1.58-.35,2.7-.62,1.33-.33,2.99-.74,5.08-1.18,2.6-.55,4.1-.92,5.2-1.18,.99-.24,1.65-.4,2.48-.54,.39-.07,.56-.38,.56-.67,0-.34-.24-.61-.58-.67l-.73-.12c-1.47-.24-2.74-.44-4.11-.44h0Z"/></g><g><path class="cls-1" d="M19.5,28.86c-.39,0-.74-.23-.89-.59l-4.71-11.3,6.16-3.08,1.91,13.37c.07,.46-.21,.9-.65,1.05l-1.51,.5c-.1,.03-.2,.05-.3,.05Z"/><path class="cls-2" d="M20,14l1.9,13.27c.06,.43-.19,.83-.6,.97l-1.51,.5c-.09,.03-.19,.05-.28,.05-.35,0-.68-.21-.82-.55l-4.68-11.24,6-3m.12-.23l-.19,.09-6,3-.13,.06,.05,.13,4.68,11.24c.16,.39,.54,.64,.96,.64,.11,0,.22-.02,.33-.05l1.51-.5c.48-.16,.77-.64,.7-1.13l-1.9-13.27-.03-.21h0Z"/></g><g><path class="cls-1" d="M29.88,35.74c-.15,0-.29-.02-.43-.05l-.99-.25c-.88-.22-1.45-1.06-1.34-1.96l1.81-15.49,8.18-1.08-5.53,17.61c-.24,.73-.93,1.22-1.7,1.22h0Z"/><path class="cls-2" d="M37,17l-5.5,17.5c-.24,.71-.9,1.17-1.62,1.17-.14,0-.28-.02-.42-.05l-.99-.25c-.84-.21-1.39-1.01-1.28-1.87l1.81-15.49,8-1m.21-.18l-.23,.03-8,1h-.12v.13l-1.83,15.49c-.12,.93,.48,1.81,1.4,2.04l.99,.25c.15,.04,.3,.06,.45,.06,.8,0,1.51-.51,1.77-1.27l5.5-17.5,.07-.22h0Z"/></g><g><circle class="cls-1" cx="16" cy="13" r="6.08"/><path class="cls-2" d="M16,7c3.31,0,6,2.69,6,6s-2.69,6-6,6-6-2.69-6-6,2.69-6,6-6m0-.15c-3.39,0-6.15,2.76-6.15,6.15s2.76,6.15,6.15,6.15,6.15-2.76,6.15-6.15-2.76-6.15-6.15-6.15h0Z"/></g><g><circle class="cls-1" cx="34" cy="13" r="8.08"/><path class="cls-2" d="M34,5c4.42,0,8,3.58,8,8s-3.58,8-8,8-8-3.58-8-8,3.58-8,8-8m0-.15c-4.49,0-8.15,3.66-8.15,8.15s3.66,8.15,8.15,8.15,8.15-3.66,8.15-8.15-3.66-8.15-8.15-8.15h0Z"/></g></g></svg>