<?xml version="1.0" encoding="UTF-8"?><svg id="Layer_1" xmlns="http://www.w3.org/2000/svg" viewBox="0 0 50 50"><defs><style>.cls-1{fill:#001e36;}.cls-2{fill:#31a8ff;}</style></defs><g id="Layer_2"><path class="cls-1" d="M9.18,.5h31.65c4.8,0,8.68,3.98,8.68,8.9v31.2c0,4.92-3.88,8.9-8.68,8.9H9.18c-4.8,0-8.68-3.98-8.68-8.9V9.4C.5,4.48,4.38,.5,9.18,.5Z"/><g id="Ps"><path class="cls-2" d="M11.52,34.86V13.32c0-.15,.06-.23,.2-.23,.35,0,.67,0,1.14-.02,.49-.02,1-.02,1.55-.04,.55-.02,1.14-.02,1.78-.04,.63-.02,1.25-.02,1.86-.02,1.67,0,3.06,.21,4.21,.65,1.02,.36,1.96,.94,2.74,1.72,.65,.67,1.16,1.49,1.49,2.39,.31,.88,.47,1.78,.47,2.72,0,1.8-.41,3.29-1.22,4.46s-1.96,2.05-3.29,2.55c-1.39,.52-2.92,.71-4.59,.71-.49,0-.82,0-1.02-.02s-.49-.02-.88-.02v6.72c.02,.15-.08,.27-.22,.29h-3.96c-.16,0-.25-.08-.25-.27Zm4.45-17.74v7.04c.29,.02,.55,.04,.8,.04h1.08c.8,0,1.59-.13,2.35-.38,.65-.19,1.22-.59,1.67-1.11,.43-.52,.63-1.24,.63-2.16,.02-.65-.14-1.3-.47-1.86-.35-.54-.84-.96-1.43-1.19-.76-.31-1.57-.44-2.41-.42-.53,0-1,0-1.39,.02-.41-.02-.69,0-.84,.02h0Z"/><path class="cls-2" d="M39.7,22.89c-.61-.34-1.27-.57-1.96-.71-.76-.17-1.51-.27-2.29-.27-.41-.02-.84,.04-1.22,.15-.27,.06-.49,.21-.63,.42-.1,.17-.16,.38-.16,.57s.08,.38,.2,.54c.18,.23,.43,.42,.69,.57,.47,.25,.96,.48,1.45,.69,1.1,.38,2.16,.9,3.14,1.53,.67,.44,1.22,1.03,1.61,1.74,.33,.67,.49,1.4,.47,2.16,.02,.98-.27,1.97-.8,2.79-.57,.84-1.37,1.49-2.29,1.86-1,.44-2.23,.67-3.7,.67-.94,0-1.86-.08-2.78-.27-.71-.13-1.43-.36-2.08-.67-.14-.08-.24-.23-.22-.4v-3.64c0-.06,.02-.15,.08-.19,.06-.04,.12-.02,.18,.02,.8,.48,1.63,.82,2.53,1.03,.78,.21,1.59,.31,2.41,.31s1.33-.1,1.69-.29c.33-.15,.55-.5,.55-.88,0-.29-.16-.57-.49-.84-.33-.27-1-.59-2-.98-1.04-.38-2-.88-2.9-1.51-.63-.46-1.16-1.07-1.55-1.78-.33-.67-.49-1.4-.47-2.14,0-.9,.24-1.76,.69-2.53,.51-.84,1.27-1.51,2.14-1.93,.96-.5,2.16-.73,3.61-.73,.84,0,1.69,.06,2.53,.19,.61,.08,1.2,.25,1.76,.48,.08,.02,.16,.1,.2,.19,.02,.08,.04,.17,.04,.25v3.41c0,.08-.04,.17-.1,.21-.18,.04-.29,.04-.37,0Z"/></g></g></svg>