<?xml version="1.0" encoding="UTF-8"?><svg id="Layer_1" xmlns="http://www.w3.org/2000/svg" viewBox="0 0 50 50"><defs><style>.cls-1{fill:#fff;}.cls-2{fill:#7c7c7c;}.cls-3{fill:#d3d3d3;}</style></defs><path class="cls-3" d="M9.18,.5h31.65c4.8,0,8.68,3.98,8.68,8.9v31.2c0,4.92-3.88,8.9-8.68,8.9H9.18c-4.8,0-8.68-3.98-8.68-8.9V9.4C.5,4.48,4.38,.5,9.18,.5Z"/><g id="Id"><g><path class="cls-1" d="M14.02,35.21c-.23,0-.34-.14-.34-.41V13.32c0-.22,.13-.35,.36-.35h3.99c.19,0,.31,.12,.33,.27l.02,21.56c0,.36-.23,.41-.36,.41h-4Z"/><path class="cls-2" d="M18.05,13.04c.11,0,.21,.08,.23,.21,.02,.02,.02,.04,.02,.06v21.48c0,.23-.1,.34-.29,.34h-4c-.18,0-.27-.1-.27-.34V13.32c0-.19,.1-.27,.29-.27h3.98s.03,0,.04,0m0-.15s-.04,0-.06,0h-3.96c-.27,0-.44,.16-.44,.42v21.48c0,.42,.26,.49,.42,.49h4c.27,0,.44-.18,.44-.49V13.32s0-.07-.03-.12c-.04-.18-.19-.3-.37-.3h0Z"/></g><g><path class="cls-1" d="M29.92,35.55c-1.49,0-2.97-.33-4.28-.95-1.28-.6-2.35-1.6-3.12-2.88-.75-1.27-1.13-2.89-1.13-4.81-.02-1.56,.37-3.1,1.13-4.46,.79-1.39,1.92-2.52,3.27-3.27,1.44-.82,3.14-1.22,5.2-1.22,.1,0,.25,0,.44,.02,.1,.01,.2,.02,.31,.02,.08,0,.15,0,.24,.01v-6.54c0-.27,.17-.31,.28-.31h4.15c.16,0,.25,.1,.27,.2V31.37c0,.34,.02,.72,.04,1.13v.12c.04,.36,.06,.71,.08,1.02v.2c.01,.19-.08,.34-.24,.41-1.05,.46-2.18,.8-3.34,1.01-1.06,.2-2.12,.29-3.16,.29h-.14Zm.92-13.55c-.83,0-1.6,.18-2.27,.54-.69,.36-1.27,.87-1.71,1.52-.44,.65-.66,1.54-.66,2.62-.02,.72,.09,1.43,.34,2.13,.2,.56,.51,1.05,.9,1.46,.39,.38,.85,.66,1.36,.82,.52,.18,1.08,.27,1.67,.27,.3,0,.59-.02,.85-.04,.06,0,.14,0,.14,0,.19,0,.39-.04,.57-.1l-.05-9.14s-.07,.01-.11,.01c-.11,0-.25-.03-.38-.04-.22-.02-.44-.04-.67-.04Z"/><path class="cls-2" d="M36.44,11.24c.09,0,.15,.07,.17,.15V31.37c0,.38,.02,.8,.04,1.26,.04,.44,.06,.86,.08,1.21,0,.15-.06,.27-.2,.34-1.06,.46-2.18,.8-3.33,1.01-1.02,.19-2.08,.29-3.14,.29-.05,0-.09,0-.14,0-1.46,0-2.92-.31-4.25-.94-1.29-.61-2.35-1.61-3.08-2.85-.76-1.28-1.12-2.87-1.12-4.77-.02-1.55,.37-3.08,1.12-4.42,.78-1.36,1.9-2.49,3.25-3.25,1.43-.82,3.14-1.21,5.17-1.21,.1,0,.24,0,.43,.02s.39,.02,.63,.04v-6.62c0-.15,.06-.23,.2-.23h4.14s.02,0,.03,0m-5.97,20.19c.31,0,.59-.02,.86-.04,.05,0,.09,0,.13,0,.21,0,.41-.04,.6-.11v-9.21c-.18-.04-.37-.08-.55-.1-.22-.02-.45-.04-.67-.04-.8,0-1.59,.17-2.31,.54-.69,.36-1.29,.88-1.74,1.55-.45,.67-.67,1.57-.67,2.66-.02,.73,.1,1.47,.35,2.16,.2,.57,.51,1.07,.92,1.49,.39,.38,.86,.67,1.39,.84,.55,.19,1.12,.27,1.69,.27m5.97-20.34h-4.18c-.22,0-.35,.15-.35,.38v6.46c-.05,0-.11,0-.16,0-.11,0-.21-.01-.31-.02-.19-.02-.34-.02-.45-.02-2.07,0-3.79,.4-5.24,1.23-1.36,.76-2.51,1.9-3.3,3.3-.77,1.36-1.16,2.92-1.14,4.49,0,1.93,.38,3.57,1.14,4.85,.77,1.29,1.86,2.3,3.15,2.91,1.32,.63,2.81,.96,4.31,.96h.14c1.04,0,2.11-.1,3.17-.3,1.17-.21,2.3-.56,3.36-1.02,.19-.08,.29-.25,.29-.47v-.18c-.03-.32-.05-.68-.08-1.05v-.12c-.02-.4-.04-.78-.04-1.12V11.39c-.04-.17-.16-.3-.32-.3h0Zm-5.97,20.19c-.58,0-1.13-.09-1.65-.26-.5-.16-.95-.43-1.33-.8-.38-.39-.68-.88-.88-1.43-.24-.69-.36-1.4-.34-2.1,0-1.07,.22-1.94,.65-2.58,.43-.65,1-1.15,1.68-1.5,.66-.35,1.42-.53,2.24-.53,.22,0,.44,.02,.66,.04,.13,.02,.28,.04,.42,.08v8.99c-.15,.04-.3,.07-.45,.07-.04,0-.08,0-.12,0-.3,.02-.57,.04-.87,.04h0Z"/></g></g></svg>