<?xml version="1.0" encoding="UTF-8"?><svg id="Layer_1" xmlns="http://www.w3.org/2000/svg" xmlns:xlink="http://www.w3.org/1999/xlink" viewBox="0 0 50 50"><defs><style>.cls-1{fill:url(#linear-gradient-2);}.cls-2{fill:#7c7c7c;}.cls-3{fill:url(#linear-gradient-5);}.cls-4{fill:url(#linear-gradient-3);}.cls-5{fill:url(#linear-gradient);}.cls-6{fill:#d0d0d0;}.cls-7{fill:url(#linear-gradient-4);}</style><linearGradient id="linear-gradient" x1="33.62" y1="-61.82" x2="33.62" y2="-103.01" gradientTransform="translate(0 -60) scale(1 -1)" gradientUnits="userSpaceOnUse"><stop offset="0" stop-color="#fff"/><stop offset=".17" stop-color="#fff"/><stop offset=".31" stop-color="#fff"/><stop offset=".43" stop-color="#fff"/><stop offset=".5" stop-color="#fff"/></linearGradient><linearGradient id="linear-gradient-2" x1="26.47" y1="-63.52" x2="4.85" y2="-94.39" gradientTransform="translate(0 -60) scale(1 -1)" gradientUnits="userSpaceOnUse"><stop offset="0" stop-color="#fefefe"/><stop offset=".6" stop-color="#fefefe"/><stop offset=".73" stop-color="#fefefe"/><stop offset=".85" stop-color="#fefefe"/><stop offset=".94" stop-color="#fefefe"/><stop offset="1" stop-color="#fefefe"/></linearGradient><linearGradient id="linear-gradient-3" x1="15.33" y1="-101.41" x2="43.22" y2="-101.41" gradientTransform="translate(0 -60) scale(1 -1)" gradientUnits="userSpaceOnUse"><stop offset="0" stop-color="#fefefe"/><stop offset=".6" stop-color="#fefefe"/></linearGradient><linearGradient id="linear-gradient-4" x1="26.91" y1="-62.89" x2="22.33" y2="-69.43" gradientTransform="translate(0 -60) scale(1 -1)" gradientUnits="userSpaceOnUse"><stop offset="0" stop-color="#000" stop-opacity=".4"/><stop offset="1" stop-color="#000" stop-opacity="0"/></linearGradient><linearGradient id="linear-gradient-5" x1="34.29" y1="-102.04" x2="21.8" y2="-100.95" xlink:href="#linear-gradient-4"/></defs><path class="cls-6" d="M9.18,.5h31.65c4.8,0,8.68,3.98,8.68,8.9v31.2c0,4.92-3.88,8.9-8.68,8.9H9.18c-4.8,0-8.68-3.98-8.68-8.9V9.4C.5,4.48,4.38,.5,9.18,.5Z"/><g><g><path class="cls-5" d="M29.52,36.8V11.58l-3.05-7.38,11.34,3.41c1.74,.52,2.95,2.23,2.95,4.14v26.65c0,1.91-1.21,3.61-2.94,4.13l-11.29,3.41,2.99-9.13Z"/><path class="cls-2" d="M26.6,4.31l11.19,3.36c1.72,.52,2.9,2.18,2.9,4.07v26.65c0,1.88-1.18,3.54-2.89,4.06l-11.15,3.37,2.95-8.99V11.58l-3-7.26m-.26-.23l.12,.29,2.98,7.24v25.19l-2.94,8.97-.09,.27,.28-.08,11.15-3.37c1.76-.54,2.99-2.27,3-4.2V11.74c0-1.95-1.23-3.68-3-4.21l-11.19-3.36-.3-.09h0Z"/></g><g><path class="cls-1" d="M10.47,36.9c-1.24,0-2.24-1.04-2.23-2.3V15.67c0-1.54,.81-2.97,2.12-3.73l12.45-7.28c.66-.38,1.4-.58,2.16-.58,.41,0,.81,.06,1.19,.17,1.85,.54,3.15,2.3,3.15,4.27v3.06l-10.93,4.1c-1.13,.42-1.89,1.53-1.89,2.77v13.59c0,1.13-.6,2.17-1.56,2.71l-3.37,1.87c-.33,.18-.7,.28-1.07,.28h0Z"/><path class="cls-2" d="M24.98,4.15c.39,0,.78,.06,1.15,.17,1.83,.53,3.09,2.25,3.1,4.2v3.06l-10.88,4.03c-1.16,.44-1.93,1.57-1.94,2.84v13.59c0,1.1-.58,2.12-1.52,2.65l-3.37,1.87c-.32,.18-.67,.27-1.03,.27h0c-1.2,0-2.16-1-2.16-2.23V15.67c0-1.52,.79-2.92,2.08-3.67l12.45-7.28c.65-.37,1.38-.57,2.12-.57h.02m0-.15h-.02c-.77,0-1.52,.21-2.19,.59l-12.45,7.28c-1.33,.78-2.15,2.23-2.15,3.8v18.93c0,1.31,1.03,2.37,2.31,2.38,.39,0,.77-.1,1.11-.29l3.37-1.87c.99-.56,1.6-1.62,1.6-2.78v-13.59c0-1.2,.74-2.28,1.84-2.7l10.88-4.03,.1-.04v-3.17c0-2.01-1.32-3.79-3.2-4.34-.39-.11-.79-.17-1.19-.17h0Z"/></g><g><path class="cls-4" d="M25.02,46.07c-.74,0-1.46-.2-2.1-.57l-7.66-4.45c-.68-.41-1.1-1.16-1.11-1.96-.01-1.27,.98-2.31,2.22-2.33h12.94v4.92c0,1.95-1.27,3.69-3.1,4.22-.38,.12-.78,.18-1.17,.18h0Z"/><path class="cls-2" d="M29.22,36.82v4.84c0,1.93-1.24,3.62-3.05,4.15-.37,.11-.76,.17-1.15,.17h0c-.72,0-1.44-.19-2.07-.56l-7.66-4.45c-.66-.4-1.07-1.12-1.08-1.9-.01-1.23,.95-2.24,2.15-2.25h12.86m.15-.15h-13.01c-1.28,.01-2.31,1.09-2.3,2.4,0,.83,.45,1.61,1.15,2.03l7.66,4.46c.65,.38,1.39,.58,2.14,.58,.41,0,.81-.06,1.2-.18,1.86-.54,3.16-2.31,3.15-4.29v-4.99h0Z"/></g><g><path class="cls-7" d="M10.47,36.9c-1.24,0-2.24-1.04-2.23-2.3V15.67c0-1.54,.81-2.97,2.12-3.73l12.45-7.28c.66-.38,1.4-.58,2.16-.58,.41,0,.81,.06,1.19,.17,1.85,.54,3.15,2.3,3.15,4.27v3.06l-10.93,4.1c-1.13,.42-1.89,1.53-1.89,2.77v13.59c0,1.13-.6,2.17-1.56,2.71l-3.37,1.87c-.33,.18-.7,.28-1.07,.28h0Z"/><path class="cls-2" d="M24.98,4.15c.39,0,.78,.06,1.15,.17,1.83,.53,3.09,2.25,3.1,4.2v3.06l-10.88,4.03c-1.16,.44-1.93,1.57-1.94,2.84v13.59c0,1.1-.58,2.12-1.52,2.65l-3.37,1.87c-.32,.18-.67,.27-1.03,.27h0c-1.2,0-2.16-1-2.16-2.23V15.67c0-1.52,.79-2.92,2.08-3.67l12.45-7.28c.65-.37,1.38-.57,2.12-.57h.02m0-.15h-.02c-.77,0-1.52,.21-2.19,.59l-12.45,7.28c-1.33,.78-2.15,2.23-2.15,3.8v18.93c0,1.31,1.03,2.37,2.31,2.38,.39,0,.77-.1,1.11-.29l3.37-1.87c.99-.56,1.6-1.62,1.6-2.78v-13.59c0-1.2,.74-2.28,1.84-2.7l10.88-4.03,.1-.04v-3.17c0-2.01-1.32-3.79-3.2-4.34-.39-.11-.79-.17-1.19-.17h0Z"/></g><g><path class="cls-3" d="M25.02,46.07c-.74,0-1.46-.2-2.1-.57l-7.66-4.45c-.68-.41-1.1-1.16-1.11-1.96-.01-1.27,.98-2.31,2.22-2.33h12.94v4.92c0,1.95-1.27,3.69-3.1,4.22-.38,.12-.78,.18-1.17,.18h0Z"/><path class="cls-2" d="M29.22,36.82v4.84c0,1.93-1.24,3.62-3.05,4.15-.37,.11-.76,.17-1.15,.17h0c-.72,0-1.44-.19-2.07-.56l-7.66-4.45c-.66-.4-1.07-1.12-1.08-1.9-.01-1.23,.95-2.24,2.15-2.25h12.86m.15-.15h-13.01c-1.28,.01-2.31,1.09-2.3,2.4,0,.83,.45,1.61,1.15,2.03l7.66,4.46c.65,.38,1.39,.58,2.14,.58,.41,0,.81-.06,1.2-.18,1.86-.54,3.16-2.31,3.15-4.29v-4.99h0Z"/></g></g></svg>