<?xml version="1.0" encoding="UTF-8"?><svg id="b_w" xmlns="http://www.w3.org/2000/svg" viewBox="0 0 50 50"><defs><style>.cls-1{fill:#fff;}.cls-2{fill:#7c7c7c;}.cls-3{fill:#d2d2d2;}</style></defs><g id="Layer_2"><path className="cls-3" d="M9.18,.5h31.65c4.8,0,8.68,3.98,8.68,8.9v31.2c0,4.92-3.88,8.9-8.68,8.9H9.18c-4.8,0-8.68-3.98-8.68-8.9V9.4C.5,4.48,4.38,.5,9.18,.5Z"/><g id="Ai"><g><path className="cls-1" d="M26.21,35.19c-.16,0-.32-.12-.36-.29l-1.67-4.98-7.52,.05-1.48,4.87c-.04,.2-.22,.35-.42,.35h-3.88c-.12,0-.21-.04-.27-.1-.06-.08-.07-.2-.03-.37l6.58-19.42,.06-.19c.04-.16,.09-.32,.15-.5,.08-.42,.12-.88,.12-1.34-.03-.12,.08-.27,.22-.3h5.3c.26,0,.32,.14,.34,.23l7.45,21.56c.04,.16,.03,.26-.02,.34-.05,.07-.13,.1-.25,.1h-4.3Zm-3.29-9.62c-.12-.42-.27-.9-.44-1.41-.18-.57-.37-1.17-.55-1.8l-.59-1.93c-.2-.65-.39-1.26-.55-1.87,0,0-.33-1.21-.39-1.42-.19,.89-.4,1.7-.65,2.49l-.34,1.14c-.19,.65-.39,1.3-.59,1.96-.26,.97-.55,1.92-.86,2.83h4.98Z"/><path className="cls-2" d="M23,13.04c.16,0,.24,.06,.27,.17l7.45,21.57c.06,.23,0,.34-.2,.34h-4.27s-.02,0-.04,0c-.13,0-.25-.1-.29-.23l-1.67-4.98h-7.6l-1.55,4.92c-.04,.17-.18,.3-.35,.3-.01,0-.03,0-.04,0h-3.84c-.22,0-.29-.13-.22-.38l6.57-19.41c.06-.21,.12-.44,.2-.69,.08-.44,.12-.9,.12-1.36-.02-.1,.06-.21,.16-.23h5.29m-5.17,12.61h5.19c-.12-.44-.29-.96-.47-1.51-.18-.57-.37-1.17-.55-1.8-.2-.65-.39-1.28-.59-1.93-.2-.65-.39-1.26-.55-1.86-.16-.59-.31-1.13-.45-1.63h-.04c-.18,.9-.41,1.8-.69,2.7-.31,1.01-.61,2.05-.94,3.1-.29,1.07-.59,2.05-.9,2.93m5.17-12.76h-5.29c-.22,.04-.35,.23-.31,.41,0,.43-.04,.88-.12,1.31-.05,.16-.1,.33-.15,.49l-.05,.19-6.57,19.41c-.05,.2-.04,.34,.04,.44,.07,.09,.18,.13,.32,.13h3.84s.02,0,.04,0c.24,0,.44-.17,.49-.41l1.52-4.8h7.38l1.64,4.88c.05,.19,.24,.34,.43,.34h4.3c.14,0,.25-.05,.31-.13,.07-.09,.08-.22,.04-.4l-7.46-21.58c-.01-.07-.09-.27-.41-.27h0Zm-4.95,12.61c.3-.88,.58-1.8,.83-2.74,.2-.64,.4-1.29,.59-1.93,.12-.39,.23-.78,.35-1.16,.22-.7,.42-1.42,.59-2.2,.03,.12,.07,.25,.1,.37,.07,.24,.13,.5,.21,.75,.14,.53,.31,1.11,.55,1.87,.1,.32,.2,.64,.3,.96,.1,.32,.19,.64,.3,.96,.21,.7,.39,1.29,.55,1.8,.16,.47,.3,.92,.41,1.31h-4.78Z"/></g><g><path className="cls-1" d="M33.19,35.21c-.24,0-.38-.15-.38-.41V18.68c0-.25,.11-.37,.34-.37h4.04c.22,0,.34,.13,.34,.37v16.12c0,.27-.11,.41-.34,.41h-4Zm1.97-18.51c-.73,0-1.37-.27-1.86-.75-.48-.54-.74-1.24-.72-1.98-.02-.72,.26-1.42,.76-1.92,.5-.49,1.16-.75,1.87-.75,.8,0,1.44,.25,1.91,.76,.46,.52,.71,1.21,.69,1.92,.02,.74-.24,1.45-.74,1.98-.45,.48-1.1,.76-1.77,.76h-.15Z"/><path className="cls-2" d="M35.21,11.37c.8,0,1.41,.25,1.86,.73,.45,.5,.69,1.17,.67,1.86,.02,.71-.22,1.4-.71,1.93-.44,.47-1.07,.74-1.72,.74-.05,0-.09,0-.14,0-.02,0-.05,0-.07,0-.65,0-1.27-.27-1.74-.73-.47-.52-.71-1.21-.69-1.93-.02-.71,.25-1.38,.74-1.86,.49-.48,1.14-.73,1.82-.73m1.98,7.01c.18,0,.27,.1,.27,.29v16.12c0,.23-.08,.34-.27,.34h-4c-.2,0-.31-.13-.31-.34V18.68c0-.21,.08-.29,.27-.29h4.04m-1.98-7.16c-.73,0-1.41,.28-1.92,.78-.52,.51-.8,1.23-.78,1.97-.02,.75,.24,1.47,.73,2.02,.52,.51,1.17,.78,1.86,.78h.08s.09,0,.14,0c.7,0,1.36-.29,1.83-.78,.51-.54,.78-1.27,.75-2.03,.02-.71-.24-1.43-.71-1.96-.49-.52-1.15-.78-1.97-.78h0Zm1.98,7.01h-4.04c-.19,0-.42,.08-.42,.44v16.12c0,.3,.17,.49,.46,.49h4c.16,0,.42-.06,.42-.49V18.68c0-.28-.16-.44-.42-.44h0Z"/></g></g></g></svg>