<?xml version="1.0" encoding="UTF-8"?><svg id="Layer_1" xmlns="http://www.w3.org/2000/svg" xmlns:xlink="http://www.w3.org/1999/xlink" viewBox="0 0 50 50"><defs><style>.cls-1{fill:url(#linear-gradient-2);}.cls-2{fill:url(#linear-gradient-5);}.cls-3{fill:none;stroke:#d0d0d0;stroke-miterlimit:10;stroke-width:.25px;}.cls-4{fill:url(#linear-gradient-3);}.cls-5{fill:url(#linear-gradient);}.cls-6{fill:url(#linear-gradient-4);}</style><linearGradient id="linear-gradient" x1="33.39" y1="-61.8" x2="33.39" y2="-103" gradientTransform="translate(0 -60) scale(1 -1)" gradientUnits="userSpaceOnUse"><stop offset="0" stop-color="#ffb900"/><stop offset=".17" stop-color="#ef8400"/><stop offset=".31" stop-color="#e25c01"/><stop offset=".43" stop-color="#db4401"/><stop offset=".5" stop-color="#d83b01"/></linearGradient><linearGradient id="linear-gradient-2" x1="26.46" y1="-63.57" x2="4.84" y2="-94.44" gradientTransform="translate(0 -60) scale(1 -1)" gradientUnits="userSpaceOnUse"><stop offset="0" stop-color="#800600"/><stop offset=".6" stop-color="#c72127"/><stop offset=".73" stop-color="#c13959"/><stop offset=".85" stop-color="#bc4b81"/><stop offset=".94" stop-color="#b95799"/><stop offset="1" stop-color="#b85ba2"/></linearGradient><linearGradient id="linear-gradient-3" x1="15.38" y1="-101.48" x2="42.99" y2="-101.48" gradientTransform="translate(0 -60) scale(1 -1)" gradientUnits="userSpaceOnUse"><stop offset="0" stop-color="#f32b44"/><stop offset=".6" stop-color="#a4070a"/></linearGradient><linearGradient id="linear-gradient-4" x1="26.9" y1="-62.94" x2="22.32" y2="-69.48" gradientTransform="translate(0 -60) scale(1 -1)" gradientUnits="userSpaceOnUse"><stop offset="0" stop-color="#000" stop-opacity=".4"/><stop offset="1" stop-color="#000" stop-opacity="0"/></linearGradient><linearGradient id="linear-gradient-5" x1="34.14" y1="-102.11" x2="21.77" y2="-101.03" xlink:href="#linear-gradient-4"/></defs><path class="cls-3" d="M9.18,.5h31.65c4.8,0,8.68,3.98,8.68,8.9v31.2c0,4.92-3.88,8.9-8.68,8.9H9.18c-4.8,0-8.68-3.98-8.68-8.9V9.4C.5,4.48,4.38,.5,9.18,.5Z"/><g><path class="cls-5" d="M26.11,4.18l3.1,7.3v25.39l-3.05,9.04,11.53-3.39c1.77-.52,2.98-2.19,2.99-4.08V11.65c0-1.9-1.22-3.57-2.99-4.09l-11.57-3.38Z"/><path class="cls-1" d="M11.49,36.69l3.37-1.88c.94-.53,1.53-1.56,1.52-2.66v-13.67c0-1.28,.77-2.41,1.94-2.85l10.88-4.06v-3.08c0-1.96-1.27-3.68-3.1-4.22-.38-.11-.77-.17-1.17-.17h0c-.74,0-1.47,.2-2.12,.58l-12.45,7.32c-1.28,.75-2.08,2.16-2.08,3.69v19.03c0,1.23,.96,2.24,2.16,2.24,.36,0,.72-.09,1.04-.27Z"/><path class="cls-4" d="M29.2,36.87h-12.86c-1.2,.01-2.16,1.03-2.15,2.26,0,.79,.42,1.51,1.08,1.91l7.66,4.48c.63,.37,1.34,.56,2.07,.56h0c.39,0,.78-.06,1.15-.17,1.81-.53,3.05-2.24,3.05-4.17v-4.87Z"/><path class="cls-6" d="M11.49,36.69l3.37-1.88c.94-.53,1.53-1.56,1.52-2.66v-13.67c0-1.28,.77-2.41,1.94-2.85l10.88-4.06v-3.08c0-1.96-1.27-3.68-3.1-4.22-.38-.11-.77-.17-1.17-.17h0c-.74,0-1.47,.2-2.12,.58l-12.45,7.32c-1.28,.75-2.08,2.16-2.08,3.69v19.03c0,1.23,.96,2.24,2.16,2.24,.36,0,.72-.09,1.04-.27Z"/><path class="cls-2" d="M29.2,36.87h-12.86c-1.2,.01-2.16,1.03-2.15,2.26,0,.79,.42,1.51,1.08,1.91l7.66,4.48c.63,.37,1.34,.56,2.07,.56h0c.39,0,.78-.06,1.15-.17,1.81-.53,3.05-2.24,3.05-4.17v-4.87Z"/></g></svg>