<?xml version="1.0" encoding="UTF-8"?><svg id="color" xmlns="http://www.w3.org/2000/svg" viewBox="0 0 50 50"><defs><style>.cls-1{fill:#fff;}.cls-2{fill:#000b1d;}</style></defs><path class="cls-2" d="M9.18,.5h31.65c4.8,0,8.68,3.98,8.68,8.9v31.2c0,4.92-3.88,8.9-8.68,8.9H9.18c-4.8,0-8.68-3.98-8.68-8.9V9.4C.5,4.48,4.38,.5,9.18,.5Z"/><path id="_64" class="cls-1" d="M39.9,28.87c-2.27-2.47-8.53-1.47-10-1.21-2.16-2.16-3.67-4.71-4.19-5.65,.82-2.39,1.35-4.92,1.43-7.41,0-2.26-.88-4.69-3.33-4.69-.86,.02-1.63,.5-2.06,1.24-1.04,1.84-.63,5.65,1.04,9.51-.98,2.83-2.39,6.91-4.25,10.22-2.51,1.03-7.84,3.54-8.35,6.32-.16,.82,.12,1.65,.73,2.22,.59,.54,1.37,.82,2.16,.8,3.21,0,6.41-4.56,8.57-8.48,1.82-.65,4.72-1.51,7.64-2.05,3.39,3.04,6.41,3.5,7.94,3.5,2.08,0,2.86-.92,3.14-1.7,.31-.88,.12-1.88-.49-2.6Zm-2.21,1.59c-.1,.61-.86,1.21-2.27,.9-1.63-.42-3.16-1.21-4.45-2.3,1.1-.19,3.67-.44,5.49-.08,.65,.13,1.41,.5,1.23,1.49ZM23.08,11.93c.14-.27,.41-.46,.71-.46,.78,0,.94,.96,.94,1.76-.1,1.91-.51,3.85-1.02,5.59-1.31-3.56-1.12-6.03-.63-6.89Zm-.18,17.4c.69-1.4,1.67-3.96,2.02-4.98,.78,1.32,2.08,2.97,2.78,3.73,.02-.02-2.65,.54-4.8,1.26Zm-5.12,3.6c-2.06,3.39-4.08,5.53-5.27,5.53-.18,0-.39-.06-.53-.19-.22-.19-.33-.48-.27-.77,.22-1.21,2.57-2.97,6.06-4.56Z"/></svg>