<?xml version="1.0" encoding="UTF-8"?><svg id="b_w" xmlns="http://www.w3.org/2000/svg" viewBox="0 0 50 50"><defs><style>.cls-1{fill:#fff;}.cls-2{fill:#d1d1d1;}.cls-3{fill:#7c7c7c;}</style></defs><g id="Layer_2"><path className="cls-2" d="M9.18,.5h31.65c4.8,0,8.68,3.98,8.68,8.9v31.2c0,4.92-3.88,8.9-8.68,8.9H9.18c-4.8,0-8.68-3.98-8.68-8.9V9.4C.5,4.48,4.38,.5,9.18,.5Z"/><g id="Pr"><g><path className="cls-1" d="M12.38,35.21c-.15,0-.32-.06-.32-.35V13.32c0-.19,.1-.31,.28-.31h0c.35,0,.67,0,1.14-.02,.26-.01,.52-.02,.79-.02,.25,0,.5,0,.77-.02,.29-.01,.58-.02,.89-.02,.29,0,.58-.01,.89-.02,.63-.02,1.25-.02,1.86-.02,1.7,0,3.09,.21,4.23,.65,1.03,.36,1.99,.96,2.76,1.73,.66,.68,1.18,1.51,1.51,2.42,.32,.92,.47,1.81,.47,2.75,0,1.81-.42,3.32-1.24,4.5-.82,1.18-1.97,2.07-3.32,2.58-1.3,.49-2.77,.72-4.62,.72-.49,0-.82,0-1.03-.02-.19-.02-.45-.02-.79-.02v6.65c.02,.17-.1,.34-.29,.37h-3.97Zm4.28-11.12c.3,.02,.52,.04,.72,.04h1.08c.8,0,1.58-.13,2.32-.37,.62-.18,1.18-.55,1.64-1.09,.41-.5,.61-1.19,.61-2.11,.02-.64-.14-1.27-.46-1.83-.34-.54-.82-.94-1.39-1.16-.67-.28-1.41-.42-2.2-.42h-.18c-.53,0-1,0-1.39,.02-.13,0-.23,0-.33,0-.23,0-.4,.01-.5,.03l.06,6.89Z"/><path className="cls-3" d="M18.67,12.96c1.67,0,3.06,.21,4.21,.65,1.02,.36,1.96,.94,2.74,1.72,.65,.67,1.16,1.49,1.49,2.39,.31,.88,.47,1.78,.47,2.72,0,1.8-.41,3.29-1.22,4.46s-1.96,2.05-3.29,2.55c-1.39,.52-2.92,.71-4.59,.71-.49,0-.82,0-1.02-.02-.2-.02-.49-.02-.88-.02v6.72c.02,.15-.08,.27-.22,.29h-3.96c-.16,0-.24-.08-.24-.27V13.32c0-.15,.06-.23,.2-.23,.35,0,.67,0,1.14-.02,.49-.02,1-.02,1.55-.04,.55-.02,1.14-.02,1.78-.04,.63-.02,1.25-.02,1.86-.02m-1.25,4.15c-.12,0-.23,0-.33,0-.24,0-.41,.01-.51,.03v7.04c.29,.02,.55,.04,.8,.04h1.08c.8,0,1.59-.13,2.35-.38,.65-.19,1.23-.59,1.67-1.11,.43-.52,.63-1.24,.63-2.16,.02-.65-.14-1.3-.47-1.86-.35-.54-.84-.96-1.43-1.19-.7-.29-1.46-.42-2.23-.42-.06,0-.12,0-.18,0-.53,0-1,0-1.39,.02m1.25-4.3c-.6,0-1.23,0-1.86,.02-.3,.01-.6,.02-.89,.02-.31,0-.61,.01-.89,.02-.27,.01-.52,.02-.77,.02-.27,0-.53,.01-.78,.02-.47,.02-.79,.02-1.14,.02-.22,0-.35,.14-.35,.38v21.55c0,.27,.14,.42,.39,.42h3.96c.25-.04,.4-.24,.37-.46v-6.55c.31,0,.54,0,.71,.02,.21,.02,.54,.02,1.04,.02,1.86,0,3.34-.23,4.65-.72,1.37-.52,2.53-1.42,3.36-2.61,.83-1.19,1.25-2.72,1.25-4.55,0-.94-.16-1.85-.48-2.77-.33-.92-.86-1.76-1.52-2.44-.79-.78-1.75-1.39-2.79-1.75-1.15-.44-2.54-.66-4.26-.66h0Zm-1.25,4.45h0c.38-.02,.85-.02,1.38-.02,.06,0,.12,0,.18,0,.79,0,1.52,.14,2.17,.41,.55,.22,1.02,.61,1.36,1.14,.31,.54,.47,1.15,.45,1.78,0,.9-.2,1.57-.6,2.07-.45,.52-1,.89-1.6,1.06-.74,.25-1.52,.37-2.31,.37h-1.08c-.2,0-.42-.01-.65-.03v-6.76c.08,0,.2-.01,.36-.01,.1,0,.2,0,.32,0h0Z"/></g><g><path className="cls-1" d="M30.66,35.21c-.19,0-.34-.13-.36-.32v-11.69c0-.5,0-1.02-.02-1.57-.01-.27-.02-.55-.02-.82,0-.27-.01-.54-.02-.81,0-.47-.04-.91-.08-1.38-.03-.18,.06-.33,.2-.35h.03l.1,.02,3.52-.02c.22,0,.42,.16,.5,.39,.06,.18,.11,.35,.13,.54,.04,.21,.08,.44,.1,.65,.02,.18,.03,.36,.04,.56,.59-.68,1.29-1.24,2.08-1.67,.93-.54,2.02-.83,3.14-.83h0c.2,0,.33,.12,.35,.3v4.18c0,.27-.23,.31-.4,.31h-.27c-.67,0-1.32,.07-1.92,.21-.59,.12-1.16,.31-1.7,.56-.42,.2-.76,.46-1.02,.76l.02,10.63c0,.25-.11,.37-.34,.37h-4.06Z"/><path className="cls-3" d="M40.02,17.98c.13,0,.23,.1,.25,.23v4.17c0,.17-.1,.23-.33,.23-.09,0-.18,0-.27,0-.65,0-1.31,.07-1.93,.21-.59,.13-1.16,.31-1.72,.57-.39,.19-.76,.44-1.04,.77v10.68c0,.21-.08,.29-.27,.29h-4.02s-.03,0-.04,0c-.15,0-.27-.1-.29-.25v-11.68c0-.5,0-1.03-.02-1.57-.02-.54-.02-1.09-.04-1.63,0-.48-.04-.94-.08-1.42-.02-.1,.04-.21,.14-.23,0-.01,.01-.02,.02-.02s.03,0,.04,.02h3.57c.2,0,.37,.15,.43,.34,.06,.17,.1,.34,.12,.52,.04,.21,.08,.44,.1,.65,.02,.23,.04,.48,.04,.75,.61-.73,1.35-1.34,2.18-1.8,.94-.54,2.02-.82,3.1-.82,.01,0,.02,0,.04,0m0-.15h-.07c-1.11,0-2.21,.29-3.15,.84-.74,.41-1.4,.93-1.97,1.55,0-.13-.02-.26-.03-.38-.02-.23-.07-.48-.1-.66-.02-.18-.06-.36-.13-.55-.08-.26-.31-.43-.57-.43h-3.53s-.05-.02-.08-.02h-.15v.06c-.13,.07-.19,.22-.16,.36v.04c.04,.46,.08,.9,.08,1.35,.01,.28,.02,.55,.02,.82,0,.27,.01,.55,.02,.82,.02,.54,.02,1.06,.02,1.56v11.68c.03,.24,.21,.4,.44,.4,.02,0,.04,0,.06,0h4c.19,0,.42-.08,.42-.44v-10.62c.24-.27,.56-.51,.96-.7,.54-.24,1.1-.43,1.68-.55,.6-.14,1.23-.21,1.9-.21,.09,0,.18,0,.27,0,.4,0,.48-.21,.48-.38v-4.17c-.03-.23-.2-.38-.4-.38h0Z"/></g></g></g></svg>