<?xml version="1.0" encoding="UTF-8"?><svg id="color" xmlns="http://www.w3.org/2000/svg" viewBox="0 0 50 50"><defs><style>.cls-1{fill:#ff61f6;}.cls-2{fill:#470137;}</style></defs><g id="Layer_2"><path className="cls-2" d="M9.18,.5h31.65c4.8,0,8.68,3.98,8.68,8.9v31.2c0,4.92-3.88,8.9-8.68,8.9H9.18c-4.8,0-8.68-3.98-8.68-8.9V9.4C.5,4.48,4.38,.5,9.18,.5Z"/><g id="Dw"><path className="cls-1" d="M5.15,34.8V13.36c-.02-.13,.08-.25,.2-.27h.02c.31-.02,.78-.04,1.37-.04,.61-.02,1.31-.02,2.12-.04,.82-.02,1.67-.02,2.59-.02,2.49,0,4.57,.46,6.21,1.38,1.57,.86,2.86,2.18,3.7,3.79,.82,1.61,1.22,3.46,1.22,5.55,.02,1.47-.18,2.91-.63,4.29-.39,1.17-.98,2.26-1.76,3.22-.71,.88-1.57,1.63-2.51,2.24-.92,.59-1.94,1.03-3,1.32-1.02,.27-2.08,.42-3.14,.42h-2.31c-.82,0-1.59,0-2.29-.02-.71-.02-1.25-.02-1.59-.04-.14,0-.2-.13-.2-.34Zm4.31-17.67v13.97c.22,0,.43,0,.63,.02,.18,.02,.39,.02,.57,.04,.2,.02,.43,.02,.67,.02,.94,.02,1.88-.15,2.78-.48,.82-.29,1.53-.77,2.14-1.42,.61-.67,1.08-1.47,1.37-2.32,.33-1.01,.49-2.07,.49-3.14,.02-1.01-.14-2.01-.47-2.95-.57-1.63-1.86-2.89-3.49-3.39-.88-.27-1.78-.42-2.7-.4-.41,0-.76,0-1.04,.02-.29,0-.61,.02-.96,.04h0Z"/><path className="cls-1" d="M40.88,35.14h-3.82c-.08,.02-.18-.02-.24-.08-.06-.08-.1-.17-.12-.25-.39-1.68-.71-3.18-.98-4.46-.27-1.3-.49-2.39-.65-3.29s-.31-1.65-.43-2.28c-.1-.63-.2-1.15-.27-1.59h-.02c-.2,.92-.39,1.82-.57,2.68-.16,.86-.37,1.74-.57,2.62s-.43,1.84-.69,2.89c-.24,1.05-.53,2.2-.84,3.43-.04,.23-.14,.34-.33,.34h-3.82c-.1,.02-.2-.02-.29-.06-.06-.06-.1-.15-.14-.23l-3.98-16.19c-.06-.19,.02-.27,.24-.27h3.86c.18,0,.29,.06,.31,.21,.41,1.84,.76,3.43,1.02,4.77,.27,1.34,.49,2.47,.63,3.41,.14,.94,.29,1.72,.39,2.3s.18,1.09,.24,1.47h.06c.04-.34,.08-.65,.14-.98,.08-.4,.18-.92,.31-1.57,.12-.65,.27-1.4,.45-2.28,.18-.88,.39-1.88,.63-3.06,.22-1.15,.55-2.47,.94-3.96,0-.08,.04-.19,.08-.27,.02-.04,.1-.06,.22-.06h4c.12,0,.18,.08,.2,.23,.35,1.53,.63,2.87,.88,4.02,.22,1.15,.43,2.18,.61,3.08,.16,.88,.31,1.65,.39,2.28,.08,.65,.18,1.17,.27,1.61,.06,.36,.12,.71,.14,1.07h.06c.1-.42,.18-.92,.27-1.49,.08-.57,.18-1.19,.33-1.91,.12-.71,.27-1.49,.43-2.35,.14-.86,.35-1.8,.57-2.87,.22-1.05,.47-2.2,.76-3.43,.04-.19,.12-.27,.27-.27h3.57c.18,0,.24,.1,.2,.29l-4.41,16.14c-.02,.08-.06,.17-.12,.23,0,.1-.08,.15-.18,.13Z"/></g></g></svg>