<?xml version="1.0" encoding="UTF-8"?><svg id="color" xmlns="http://www.w3.org/2000/svg" viewBox="0 0 50 50"><defs><style>.cls-1{fill:#264de4;}.cls-2{fill:#fff;}.cls-3{fill:#2965f1;}.cls-4{fill:#ebebeb;}</style></defs><g id="CSS3" transform="translate(119,276.3622)"><polygon id="polygon2989" class="cls-1" points="49.5 .5 45.04 44.59 24.97 49.5 4.96 44.6 .5 .5 49.5 .5"/><polygon id="polygon2991" class="cls-3" points="41.21 41.79 45.03 4.11 25 4.11 25 45.75 41.21 41.79"/><polygon id="polygon2993" class="cls-4" points="10.72 20.46 11.27 25.87 25 25.87 25 20.46 10.72 20.46"/><polygon id="polygon2995" class="cls-4" points="25 9.51 24.98 9.51 9.62 9.51 10.18 14.92 25 14.92 25 9.51"/><polygon id="polygon2997" class="cls-4" points="25 40.14 25 34.51 24.97 34.52 18.14 32.89 17.7 28.58 14.38 28.58 11.55 28.58 12.41 37.07 24.97 40.14 25 40.14"/><polygon id="polygon3005" class="cls-2" points="32.53 25.87 31.82 32.89 24.98 34.51 24.98 40.14 37.55 37.07 37.65 36.16 39.09 21.92 39.24 20.46 40.35 9.51 24.98 9.51 24.98 14.92 33.62 14.92 33.06 20.46 24.98 20.46 24.98 25.87 32.53 25.87"/></g></svg>