<?xml version="1.0" encoding="UTF-8"?><svg id="b_w" xmlns="http://www.w3.org/2000/svg" viewBox="0 0 50 50"><defs><style>.cls-1{fill:#fff;}.cls-2{fill:#7c7c7c;}.cls-3{fill:#e4e4e4;}.cls-4{fill:#eee;}</style></defs><g id="HTML5"><path class="cls-3" d="M4.96,44.62L.5,.5H49.5l-4.46,44.09-20.08,4.91"/><path class="cls-4" d="M25,45.75V4.12h20.03l-3.82,37.64"/><g><path class="cls-1" d="M12.39,37.14l-.93-8.64h6.31l.44,4.39,6.8,1.55,.06,5.81-12.68-3.12Zm-1.18-11.21l-1.69-16.49h15.56v5.56h-8.66l.55,5.39h8.11v5.55H11.21Z"/><path class="cls-2" d="M25,9.52v5.41h-8.67l.57,5.54h8.1v5.4H11.28l-1.67-16.34h15.4m-7.29,19.06l.43,4.32,6.86,1.62v5.65l-12.59-3.1-.86-8.49h6.16m7.44-19.21H9.44l.02,.17,1.67,16.34v.13h14.02v-5.7h-8.12l-.54-5.24h8.65v-5.71h0Zm-7.31,19.06h-6.46l.02,.17,.86,8.49v.11l.11,.03,12.59,3.1,.19,.05v-5.96l-.12-.03-6.76-1.6-.42-4.22v-.14h-.01Z"/></g><g><path class="cls-1" d="M24.9,34.52l6.91-1.69,.65-6.88h-7.56v-5.56h14.41l-1.7,16.69-12.71,3.16v-5.72Zm0-19.52v-5.56h15.53l-.58,5.56h-14.94Z"/><path class="cls-2" d="M40.34,9.52l-.57,5.41h-14.8v-5.41h15.37m-1.12,10.95l-1.69,16.6-12.56,3.07v-5.62l6.85-1.62,.72-7.03h-7.56v-5.41h14.25m1.29-11.1h-15.69v5.71h15.09v-.13l.58-5.41,.02-.17h0Zm-1.12,10.95h-14.56v5.71h7.55l-.69,6.76-6.74,1.6-.12,.03v5.93l.19-.05,12.56-3.07,.1-.03v-.11l1.7-16.6,.02-.17h0Z"/></g></g></svg>