<?xml version="1.0" encoding="UTF-8"?><svg id="b_w" xmlns="http://www.w3.org/2000/svg" xmlns:xlink="http://www.w3.org/1999/xlink" viewBox="0 0 50 50"><defs><style>.cls-1{fill:#fff;}.cls-2{fill:#7c7c7c;}</style><filter id="drop-shadow-1" filterUnits="userSpaceOnUse"><feOffset dx="2.16" dy="2.16"/><feGaussianBlur result="blur" stdDeviation="2.16"/><feFlood flood-color="#000" flood-opacity=".75"/><feComposite in2="blur" operator="in"/><feComposite in="SourceGraphic"/></filter><filter id="drop-shadow-2" filterUnits="userSpaceOnUse"><feOffset dx="2.16" dy="2.16"/><feGaussianBlur result="blur-2" stdDeviation="2.16"/><feFlood flood-color="#000" flood-opacity=".75"/><feComposite in2="blur-2" operator="in"/><feComposite in="SourceGraphic"/></filter></defs><g><path className="cls-1" d="M9.03,43.12c-.19,0-.3-.08-.35-.23-.12-.41-.11-.85,.02-1.24,.06-.19,.26-.19,.34-.19h.15c2.38-.06,4.52-.91,6.38-2.54,.77-.68,1.83-2.01,2.22-2.98,0,0-6.83-.01-8.09-.01-1.84,0-3.68,0-5.52,.03h0c-.94,0-1.76-.33-2.35-.92-.59-.59-.91-1.41-.9-2.32,.02-5.67,.02-11.34,.02-17.02V7.13c0-2,1.2-3.2,3.2-3.2H40.45c1.79,0,2.95,1.06,3.1,2.84,.02,.19,.02,.37,.02,.56v25.22c0,.72-.05,1.54-.59,2.24-.61,.78-1.44,1.17-2.45,1.17h-13.25c-.27,0-.53,0-.57,.06-.04,.06,.07,.3,.17,.51,1.24,2.69,3.36,4.31,6.31,4.82,.5,.09,.95,.13,1.37,.13h0c.25,0,.39,.05,.48,.14,.1,.1,.14,.25,.13,.48v.37c-.01,.51-.01,.65-.48,.65h-.53s-19.82,0-24.78,0c-.05,0-.11,0-.16,.01-.07,0-.14,.02-.2,.02Zm13.23-10.93c-.81,0-1.46,.65-1.49,1.48-.02,.82,.64,1.51,1.47,1.54h0c.79,0,1.52-.73,1.53-1.49,0-.38-.15-.76-.43-1.05-.29-.3-.67-.47-1.06-.48h-.03ZM4.72,7.09c-.27,0-.43,.04-.52,.12s-.12,.24-.12,.51c.02,7.61,.02,15.23,0,22.84,0,.28,.03,.43,.12,.51,.08,.08,.23,.12,.5,.12,3.39-.01,6.76-.01,10.14-.01h14.4c3.52,0,7.04,0,10.56,.01h0c.27,0,.41-.03,.49-.11,.08-.08,.12-.23,.11-.47-.02-7.63-.02-15.27,0-22.9,0-.26-.04-.41-.12-.5s-.23-.12-.52-.12c-5.95,0-11.89,.01-17.83,.01s-11.48,0-17.22-.01v0Z"/><path className="cls-2" d="M27.51,4c4.31,0,8.63,0,12.94,0,1.74,0,2.88,1.04,3.03,2.77,.02,.18,.02,.37,.02,.55,0,8.41,0,16.81,0,25.22,0,.78-.07,1.55-.58,2.19-.61,.77-1.4,1.14-2.39,1.14h0c-1.98,0-3.95,0-5.93,0-2.44,0-4.88,0-7.32,0-.75,0-.77,.01-.47,.68,1.26,2.74,3.4,4.35,6.37,4.86,.46,.08,.92,.13,1.38,.13h.05c.38,0,.5,.17,.49,.54-.03,.85,.07,.94-.41,.94-.13,0-.3,0-.53,0h0c-3.44,0-6.88,0-10.32,0-4.82,0-9.64,0-14.46,0h0c-.11,0-.24,.03-.36,.03-.13,0-.23-.03-.27-.17-.11-.38-.11-.81,.02-1.19,.04-.12,.15-.13,.27-.13,.05,0,.11,0,.16,0h.02c2.45-.06,4.57-.96,6.41-2.57,.84-.74,1.93-2.15,2.28-3.11h-.65c-2.52,0-5.05-.01-7.57-.01-1.84,0-3.67,0-5.51,.03h-.05c-1.74,0-3.13-1.26-3.13-3.16,.03-8.53,0-17.07,.01-25.6,0-1.96,1.18-3.13,3.13-3.13,7.79,0,15.58,0,23.37,0M4.7,31.27h.01c3.29-.01,6.58-.01,9.87-.01,2.54,0,5.08,0,7.62,0s4.97,0,7.46,0c3.38,0,6.76,0,10.14,.01h0c.51,0,.67-.13,.67-.66-.02-7.63-.02-15.27,0-22.9,0-.58-.18-.69-.72-.69h0c-5.81,0-11.62,.01-17.43,.01s-11.74,0-17.61-.01h0c-.55,0-.72,.14-.72,.71,.02,7.61,.02,15.23,0,22.84,0,.55,.14,.71,.69,.71m17.58,4.03c.79,0,1.55-.75,1.56-1.57,.02-.84-.71-1.59-1.56-1.6h-.03c-.85,0-1.54,.68-1.57,1.55-.03,.86,.67,1.58,1.55,1.62h.05M27.51,3.85c-7.79,0-15.58,0-23.37,0-2.05,0-3.28,1.23-3.28,3.28,0,2.86,0,5.72,0,8.57,0,5.58,0,11.35-.02,17.03,0,.93,.33,1.77,.93,2.37,.6,.6,1.44,.94,2.35,.94h.05c1.62-.02,3.37-.03,5.51-.03,1.27,0,2.55,0,3.82,0,1.25,0,2.5,0,3.75,0h.43c-.42,.95-1.42,2.2-2.16,2.85-1.87,1.64-3.94,2.47-6.31,2.53h-.17c-.08,0-.33,0-.41,.23-.13,.4-.14,.86-.02,1.28,.04,.13,.14,.28,.42,.28,.07,0,.14,0,.21-.02,.05,0,.11-.01,.15-.01,4.82,0,9.64,0,14.46,0,3.44,0,6.88,0,10.32,0,.13,0,.24,0,.34,0,.07,0,.14,0,.19,0,.54,0,.55-.21,.55-.72,0-.1,0-.22,0-.37,0-.16,0-.38-.15-.53-.11-.11-.27-.16-.48-.16h-.05c-.42,0-.86-.04-1.36-.13-2.92-.51-5.03-2.12-6.26-4.78-.07-.15-.18-.39-.17-.45,.04-.02,.29-.02,.5-.02h7.32c1.98,0,3.95,0,5.93,0,1.04,0,1.88-.4,2.51-1.2,.56-.71,.61-1.55,.61-2.29,0-8.41,0-16.81,0-25.22,0-.19,0-.38-.02-.56-.16-1.82-1.35-2.91-3.18-2.91h-12.94ZM4.7,31.27v-.15c-.24,0-.38-.03-.44-.1-.07-.07-.1-.21-.1-.46,.02-7.52,.02-15.2,0-22.84,0-.24,.03-.38,.1-.45,.07-.07,.21-.1,.46-.1,5.87,0,11.74,.01,17.61,.01s11.62,0,17.43-.01c.26,0,.4,.03,.47,.1,.07,.07,.1,.21,.1,.44-.02,7.25-.02,14.74,0,22.9,0,.22-.03,.36-.09,.42-.06,.06-.2,.09-.43,.09-3.39-.01-6.77-.01-10.15-.01H14.58c-3.29,0-6.58,0-9.87,.01v.15h-.01Zm17.58,3.88h-.04c-.8-.03-1.42-.69-1.4-1.46,.02-.79,.65-1.41,1.42-1.41,.39,0,.76,.17,1.03,.46,.27,.28,.41,.64,.41,1-.02,.73-.7,1.42-1.41,1.42h0Z"/></g><g><path className="cls-1" d="M19.16,26.57c-.68,0-1.27-.31-1.82-.95-1.64-1.93-2.52-4.18-2.62-6.68,.14-2.41,1.05-3.89,2.87-4.65,.44-.18,.89-.28,1.33-.28s.88,.1,1.3,.28c.48,.22,.94,.32,1.39,.32s.87-.1,1.35-.29c.59-.25,1.17-.37,1.72-.37,.96,0,1.86,.36,2.66,1.08,.29,.26,.43,.39,.43,.54,0,.16-.14,.29-.43,.55-.88,.8-1.33,1.91-1.21,3.04,.12,1.13,.77,2.12,1.8,2.72,.23,.13,.39,.26,.27,.6-.53,1.39-1.24,2.51-2.18,3.44-.42,.41-.91,.62-1.47,.62-.26,0-.55-.05-.85-.14-.17-.05-.33-.11-.49-.17-.29-.11-.6-.22-.91-.27-.14-.02-.29-.03-.43-.03-.47,0-.97,.12-1.57,.38-.39,.17-.77,.26-1.12,.26Z"/><path className="cls-2" d="M24.67,14.02c.93,0,1.81,.35,2.61,1.06,.54,.49,.53,.5,0,.99-1.89,1.71-1.6,4.6,.6,5.89,.22,.13,.34,.23,.23,.51-.49,1.29-1.18,2.44-2.17,3.41-.42,.42-.9,.6-1.42,.6-.26,0-.54-.05-.82-.14-.47-.15-.92-.37-1.41-.45-.15-.02-.29-.03-.44-.03-.56,0-1.08,.16-1.6,.38-.39,.17-.75,.25-1.09,.25-.65,0-1.23-.3-1.76-.92-1.63-1.92-2.5-4.12-2.61-6.64,.12-2.04,.79-3.72,2.82-4.58,.43-.18,.87-.27,1.3-.27s.86,.09,1.27,.28c.49,.22,.95,.33,1.42,.33s.9-.1,1.37-.3c.58-.24,1.14-.36,1.7-.36m0-.15c-.57,0-1.16,.13-1.75,.38-.46,.19-.89,.29-1.32,.29s-.89-.1-1.36-.32c-.43-.19-.88-.29-1.33-.29s-.91,.1-1.36,.28c-1.85,.78-2.77,2.28-2.91,4.71,.1,2.54,.99,4.8,2.64,6.74,.56,.66,1.17,.98,1.88,.98,.36,0,.75-.09,1.15-.26,.59-.25,1.08-.37,1.54-.37,.14,0,.28,.01,.41,.03,.31,.05,.59,.16,.9,.27,.16,.06,.33,.12,.49,.17,.3,.09,.6,.14,.87,.14,.58,0,1.09-.22,1.53-.64,.95-.94,1.67-2.07,2.2-3.47,.16-.42-.11-.58-.3-.69-1.01-.59-1.65-1.56-1.76-2.67-.11-1.11,.32-2.19,1.18-2.98,.3-.28,.46-.41,.46-.61,0-.2-.17-.35-.45-.6-.82-.73-1.73-1.1-2.71-1.1h0Z"/></g><g><path className="cls-1" d="M21.81,13.89c-.13,0-.22-.03-.28-.1-.11-.12-.11-.33-.08-.61,.16-1.43,1.49-2.88,2.92-3.15,.07-.01,.12-.02,.17-.02,.12,0,.21,.03,.27,.1,.09,.1,.09,.26,.07,.41-.08,1.56-1.23,2.99-2.68,3.32-.17,.04-.3,.06-.4,.06Z"/><path className="cls-2" d="M24.54,10.08c.28,0,.29,.21,.27,.42-.08,1.54-1.22,2.93-2.62,3.26-.16,.04-.28,.06-.38,.06-.28,0-.34-.17-.29-.63,.15-1.4,1.47-2.82,2.86-3.08,.06-.01,.11-.02,.16-.02m0-.15h0c-.05,0-.12,0-.19,.02-1.46,.28-2.82,1.75-2.98,3.22-.03,.31-.03,.53,.1,.67,.08,.09,.19,.13,.34,.13,.1,0,.23-.02,.41-.06,1.48-.34,2.65-1.8,2.74-3.39,.02-.16,.02-.33-.09-.46-.07-.08-.18-.12-.32-.12h0Z"/></g></svg>