<?xml version="1.0" encoding="UTF-8"?><svg id="color" xmlns="http://www.w3.org/2000/svg" viewBox="0 0 50 50"><defs><style>.cls-1{fill:#49021f;}.cls-2{fill:#f36;}</style></defs><path className="cls-1" d="M9.18,.5h31.65c4.8,0,8.68,3.98,8.68,8.9v31.2c0,4.92-3.88,8.9-8.68,8.9H9.18c-4.8,0-8.68-3.98-8.68-8.9V9.4C.5,4.48,4.38,.5,9.18,.5Z"/><g id="Id"><path className="cls-2" d="M18.3,13.32v21.48c0,.23-.1,.34-.29,.34h-4c-.18,0-.27-.1-.27-.34V13.32c0-.19,.1-.27,.29-.27h3.98c.12-.02,.24,.06,.27,.21,.02,.02,.02,.04,.02,.06Z"/><path className="cls-2" d="M30.06,35.47c-1.51,.02-3.02-.29-4.39-.94-1.29-.61-2.35-1.61-3.08-2.85-.76-1.28-1.12-2.87-1.12-4.77-.02-1.55,.37-3.08,1.12-4.42,.78-1.36,1.9-2.49,3.25-3.25,1.43-.82,3.14-1.21,5.17-1.21,.1,0,.24,0,.43,.02,.18,.02,.39,.02,.63,.04v-6.62c0-.15,.06-.23,.2-.23h4.14c.1-.02,.18,.06,.2,.15V31.37c0,.38,.02,.8,.04,1.26,.04,.44,.06,.86,.08,1.21,0,.15-.06,.27-.2,.34-1.06,.46-2.18,.8-3.33,1.01-1.02,.19-2.08,.29-3.14,.29Zm2-4.19v-9.21c-.18-.04-.37-.08-.55-.1-.22-.02-.45-.04-.67-.04-.8,0-1.59,.17-2.31,.54-.69,.36-1.29,.88-1.74,1.55-.45,.67-.67,1.57-.67,2.66-.02,.73,.1,1.47,.35,2.16,.2,.57,.51,1.07,.92,1.49,.39,.38,.86,.67,1.39,.84,.55,.19,1.12,.27,1.69,.27,.31,0,.59-.02,.86-.04,.27,.02,.51-.02,.74-.1Z"/></g></svg>