<?xml version="1.0" encoding="UTF-8"?><svg id="Layer_1" xmlns="http://www.w3.org/2000/svg" viewBox="0 0 50 50"><defs><style>.cls-1{fill:#fff;}.cls-2{fill:#7c7c7c;}.cls-3{fill:#d2d2d2;}</style></defs><g id="Layer_2"><path class="cls-3" d="M9.18,.5h31.65c4.8,0,8.68,3.98,8.68,8.9v31.2c0,4.92-3.88,8.9-8.68,8.9H9.18c-4.8,0-8.68-3.98-8.68-8.9V9.4C.5,4.48,4.38,.5,9.18,.5Z"/><g id="Lr"><g><path class="cls-1" d="M13.28,35.21c-.18,0-.4-.08-.4-.45V13.36c-.02-.17,.1-.34,.29-.37h4.1c.16,0,.29,.1,.29,.24V30.81h9.36c.12,0,.21,.03,.26,.1,.05,.07,.07,.16,.04,.29l-.59,3.64c0,.09-.05,.19-.14,.29-.09,.06-.16,.09-.26,.09H13.28Z"/><path class="cls-2" d="M17.29,13.06c.09,0,.19,.08,.19,.17V30.88h9.43c.2,0,.27,.1,.22,.29l-.59,3.64c0,.1-.06,.19-.12,.25-.06,.04-.12,.06-.2,.06H13.28c-.22,0-.33-.13-.33-.38V13.36c-.02-.15,.08-.27,.22-.29h4.08s.02,0,.03,0m0-.15h-4.12c-.25,.04-.4,.24-.37,.47v21.38c0,.46,.3,.53,.48,.53h12.94c.11,0,.2-.03,.29-.09,.13-.13,.19-.25,.19-.38l.59-3.62c.03-.14,.01-.26-.06-.34-.07-.08-.17-.13-.32-.13h-9.28V13.23c0-.17-.16-.32-.34-.32h0Z"/></g><g><path class="cls-1" d="M29.74,35.21c-.19,0-.34-.13-.36-.32v-11.69c0-.5,0-1.02-.02-1.57-.01-.27-.02-.54-.02-.81,0-.28-.01-.55-.02-.83-.02-.46-.06-.92-.12-1.38-.03-.14,.06-.28,.2-.31h3.67c.22,0,.43,.15,.5,.39,.09,.15,.15,.33,.17,.5,.04,.21,.08,.44,.1,.65,.02,.18,.03,.36,.04,.56,.59-.68,1.29-1.24,2.08-1.67,.91-.51,1.9-.76,2.96-.76h.13c.19,0,.33,.13,.35,.3v4.18c0,.27-.23,.31-.4,.31-.17-.01-.34-.02-.5-.02-1.13,0-2.28,.25-3.33,.72-.44,.2-.81,.46-1.08,.76l.02,10.63c0,.25-.11,.37-.34,.37h-4.02Z"/><path class="cls-2" d="M39.06,18.05c.13,0,.23,.1,.25,.23v4.17c0,.17-.1,.23-.33,.23-.17-.01-.33-.02-.5-.02-1.16,0-2.3,.25-3.36,.73-.41,.19-.8,.44-1.1,.77v10.68c0,.21-.08,.29-.27,.29h-3.98s-.03,0-.04,0c-.15,0-.27-.1-.29-.25v-11.68c0-.5,0-1.03-.02-1.57-.02-.54-.02-1.09-.04-1.63-.02-.46-.06-.92-.12-1.38-.02-.1,.04-.21,.14-.23,.01-.01,.02-.02,.03-.02s.03,0,.05,.02h3.57c.2,0,.37,.15,.43,.34,.08,.15,.14,.31,.16,.48,.04,.21,.08,.44,.1,.65,.02,.23,.04,.48,.04,.75,.61-.73,1.35-1.34,2.18-1.8,.9-.5,1.9-.76,2.92-.76,.04,0,.08,0,.12,0,.01,0,.02,0,.04,0m0-.15h-.16c-1.05,0-2.08,.27-2.99,.78-.74,.41-1.4,.93-1.97,1.55,0-.13-.02-.26-.03-.38-.02-.23-.07-.48-.1-.66-.02-.17-.08-.35-.18-.53-.07-.24-.3-.41-.56-.41h-3.54s-.05-.02-.08-.02h-.06l-.04,.03c-.16,.05-.26,.22-.22,.4,.06,.45,.1,.91,.12,1.36,.01,.27,.02,.54,.02,.81,0,.27,.01,.55,.02,.82,.02,.54,.02,1.06,.02,1.56v11.68c.03,.24,.21,.4,.44,.4,.02,0,.04,0,.06,0h3.96c.19,0,.42-.08,.42-.44v-10.62c.26-.27,.6-.51,1.02-.7,1.03-.47,2.17-.71,3.29-.71,.16,0,.33,0,.49,.02h0c.4,0,.49-.21,.49-.38v-4.17c-.03-.23-.2-.38-.4-.38h0Z"/></g></g></g></svg>