<?xml version="1.0" encoding="UTF-8"?><svg id="color" xmlns="http://www.w3.org/2000/svg" xmlns:xlink="http://www.w3.org/1999/xlink" viewBox="0 0 50 50"><defs><style>.cls-1{fill:#fff;}.cls-2{filter:url(#drop-shadow-1);}</style><filter id="drop-shadow-1" filterUnits="userSpaceOnUse"><feOffset dx="2.16" dy="2.16"/><feGaussianBlur result="blur" stdDeviation="2.16"/><feFlood flood-color="#000" flood-opacity=".75"/><feComposite in2="blur" operator="in"/><feComposite in="SourceGraphic"/></filter></defs><g className="cls-2"><path className="cls-1" d="M17.9,35.87c-.25,0-.45,0-.65,0-4.36,0-8.72-.04-13.08,.02-1.77,.02-3.18-1.25-3.17-3.16,.03-8.53,0-17.07,.01-25.6,0-1.96,1.18-3.13,3.13-3.13,12.1,0,24.21,0,36.31,0,1.74,0,2.88,1.04,3.03,2.77,.02,.18,.02,.37,.02,.55,0,8.41,0,16.81,0,25.22,0,.78-.07,1.55-.58,2.19-.61,.77-1.4,1.15-2.39,1.14-4.41,0-8.83,0-13.24,0-.75,0-.77,.01-.47,.68,1.26,2.74,3.4,4.35,6.37,4.86,.47,.08,.95,.13,1.42,.13,.39,0,.51,.17,.5,.54-.03,1.08,.13,.93-.94,.94-8.26,0-16.52,0-24.78,0-.22,0-.56,.13-.64-.14-.11-.38-.11-.81,.02-1.19,.06-.18,.29-.13,.45-.13,2.45-.06,4.57-.96,6.41-2.56,.84-.74,1.93-2.15,2.28-3.11Zm4.3-4.62c5.87,0,11.73,0,17.6,.01,.52,0,.68-.13,.68-.66-.02-7.63-.02-15.27,0-22.9,0-.58-.18-.69-.72-.69-11.68,.01-23.36,.01-35.04,0-.55,0-.72,.14-.72,.71,.02,7.61,.02,15.23,0,22.84,0,.56,.14,.71,.7,.71,5.83-.02,11.66-.01,17.49-.01Zm.08,.87c-.87-.02-1.57,.67-1.59,1.55-.03,.86,.67,1.58,1.55,1.62,.81,.03,1.59-.73,1.61-1.57,.02-.84-.71-1.59-1.56-1.6Z"/><path className="cls-1" d="M14.8,18.93c.12-2.04,.79-3.72,2.82-4.58,.86-.36,1.75-.37,2.57,0,.95,.43,1.82,.44,2.79,.03,1.54-.65,3.02-.45,4.31,.7,.54,.49,.53,.5,0,.99-1.89,1.71-1.6,4.6,.6,5.89,.22,.13,.34,.23,.23,.51-.49,1.29-1.18,2.44-2.17,3.41-.64,.63-1.41,.73-2.25,.47-.47-.15-.92-.37-1.41-.45-.72-.11-1.39,.07-2.03,.35-1.12,.48-2.05,.27-2.85-.67-1.63-1.92-2.5-4.12-2.61-6.64Z"/><path className="cls-1" d="M24.81,10.51c-.08,1.54-1.22,2.93-2.62,3.26-.62,.14-.73,.04-.66-.58,.15-1.4,1.47-2.82,2.86-3.08,.44-.09,.45,.16,.43,.41Z"/></g></svg>