<?xml version="1.0" encoding="UTF-8"?><svg id="b_w" xmlns="http://www.w3.org/2000/svg" viewBox="0 0 50 50"><defs><style>.cls-1{fill:#ddd;}.cls-2{fill:#fff;}.cls-3{fill:#7c7c7c;}.cls-4{fill:#e0e0e0;}</style></defs><g id="CSS3" transform="translate(119,276.3622)"><polygon id="polygon2989" class="cls-1" points="49.5 .5 45.04 44.59 24.97 49.5 4.96 44.6 .5 .5 49.5 .5"/><polygon id="polygon2991" class="cls-4" points="41.21 41.79 45.03 4.11 25 4.11 25 45.75 41.21 41.79"/><g><g id="polygon2993"><polygon class="cls-2" points="11.21 25.95 10.64 20.39 25.08 20.39 25.08 25.95 11.21 25.95"/><path class="cls-3" d="M25,20.46v5.41H11.27l-.55-5.41h14.28m.15-.15H10.56l.02,.17,.55,5.41v.13h14.03v-5.71h0Z"/></g><g id="polygon2995"><polygon class="cls-2" points="10.11 15 9.54 9.44 25.05 9.44 25.08 9.52 25.08 15 10.11 15"/><path class="cls-3" d="M25,9.51v5.41H10.18l-.56-5.41h15.38m.15-.15H9.45l.02,.17,.56,5.41v.13h15.12v-5.71h0Z"/></g><g id="polygon2997"><polygon class="cls-2" points="12.39 37.14 11.46 28.5 17.77 28.5 18.22 32.88 24.99 34.44 25.08 34.42 25.08 34.51 25.08 40.2 24.97 40.22 12.39 37.14"/><path class="cls-3" d="M17.7,28.58l.44,4.31,6.83,1.63h.03v5.62h-.03l-12.57-3.07-.86-8.49h6.16m.14-.15h-6.46l.02,.17,.86,8.49v.11l.11,.03,12.57,3.08h.07l.11-.03,.03-.12v-5.82l-.18,.04-6.69-1.59-.43-4.21v-.13h-.01Z"/></g><g id="polygon3005"><polygon class="cls-2" points="24.9 34.51 31.8 32.81 32.45 25.95 24.9 25.95 24.9 20.39 33 20.39 33.54 15 24.9 15 24.9 9.44 40.43 9.44 37.63 37.08 24.9 40.24 24.9 34.51"/><path class="cls-3" d="M40.35,9.51l-1.11,10.95-.15,1.45-1.44,14.24-.09,.91-12.58,3.07v-5.63l6.84-1.63,.71-7.01h-7.55v-5.41h8.09l.56-5.54h-8.64v-5.41h15.37m.17-.15h-15.68v5.71h8.63l-.53,5.24h-8.1v5.71h7.54l-.68,6.74-6.74,1.6-.12,.03v5.94l.19-.05,12.58-3.07,.1-.03v-.11l.1-.91,1.44-14.24,.15-1.45,1.11-10.95,.02-.17h0Z"/></g></g></g></svg>