<?xml version="1.0" encoding="UTF-8"?><svg id="Layer_1" xmlns="http://www.w3.org/2000/svg" viewBox="0 0 50 50"><defs><style>.cls-1{fill:#fff;}.cls-2{fill:#f8682c;}.cls-3{fill:#7c7c7c;}.cls-4{fill:none;stroke:#d0d0d0;stroke-miterlimit:10;stroke-width:.25px;}.cls-5{fill:#00b4f1;}.cls-6{fill:#ffc300;}.cls-7{fill:#91c300;}</style></defs><path class="cls-4" d="M9.18,.5h31.65c4.8,0,8.68,3.98,8.68,8.9v31.2c0,4.92-3.88,8.9-8.68,8.9H9.18c-4.8,0-8.68-3.98-8.68-8.9V9.4C.5,4.48,4.38,.5,9.18,.5Z"/><g><g><path class="cls-1" d="M44.77,32.68c-3.3-.02-6.6-.03-9.9-.03h-9.97v-.07l-5.39,.06s-11.3,0-14.21,0c-1.55,0-1.6-.05-1.6-1.63,0-7.75,0-15.49,0-23.23,0-1.85,.43-2.31,2.17-2.31H44.11c1.85,0,2.18,.33,2.18,2.23v6.17c0,5.73-.01,11.46,.02,17.18,0,.64-.1,1.04-.34,1.28-.23,.23-.59,.33-1.17,.33h-.03ZM6.94,7.61c-.47,0-.76,.08-.93,.25-.18,.18-.26,.5-.26,1.02,.04,7.29,.04,13.92,0,20.28,0,.56,.08,.91,.28,1.11,.19,.19,.49,.27,1.02,.27,2.99-.02,5.94-.03,8.89-.03h18.24c2.93,0,5.87,0,8.8,.02h0c.52,0,.81-.08,.99-.26,.19-.19,.27-.52,.27-1.07-.04-6.95-.04-13.78,0-20.28,0-.53-.08-.85-.27-1.04-.18-.18-.48-.26-1.01-.26-6.16,.01-12.32,.02-18.47,.02s-11.69,0-17.54-.02v0Z"/><path class="cls-3" d="M24.62,5.55c6.5,0,12.99,0,19.49,0,1.81,0,2.11,.31,2.11,2.16,0,7.78-.02,15.57,.02,23.35,0,1.19-.35,1.54-1.44,1.54h-.03c-3.28-.02-6.56-.03-9.84-.03s-6.63,0-9.95,0h0c-3.5-.01-7.01-.01-10.52-.01-3.05,0-6.11,0-9.16,0-1.52,0-1.52-.02-1.52-1.55,0-7.74,0-15.49,0-23.23,0-1.82,.39-2.23,2.09-2.23,6.25,0,12.5,0,18.75,0m.03,2.01c-5.9,0-11.79,0-17.69-.02h-.01c-.97,0-1.27,.3-1.27,1.34,.04,6.76,.04,13.52,0,20.28,0,1.15,.35,1.45,1.37,1.45h.04c2.93-.02,5.87-.03,8.8-.03s6.06,0,9.09,0h0c3.03,0,6.06,0,9.08,0s5.94,0,8.92,.03h.03c1,0,1.31-.33,1.31-1.41-.04-6.76-.04-13.52,0-20.28,0-1.11-.36-1.38-1.35-1.38h-.01c-6.1,.01-12.21,.02-18.31,.02m-.03-2.16c-6.25,0-12.5,0-18.75,0-1.78,0-2.24,.49-2.24,2.38,0,7.74,0,15.49,0,23.23,0,1.62,.08,1.7,1.67,1.7,3.05,0,6.11,0,9.16,0h10.52c1.66,.01,3.32,.01,4.97,0,1.66,0,3.32,0,4.97,0,3.97,0,7,0,9.84,.03h0c.63,0,1.01-.11,1.26-.36,.26-.26,.37-.67,.37-1.34-.03-5.7-.03-11.5-.03-17.1,0-2.08,0-4.17,0-6.25,0-1.94-.36-2.31-2.26-2.31-6.5,0-12.99,0-19.49,0h0Zm.03,2.31c6.1,0,12.21,0,18.31-.02h0c.51,0,.8,.07,.96,.24,.17,.17,.25,.48,.25,.99-.04,6.5-.04,13.32,0,20.28,0,.53-.07,.84-.25,1.02-.16,.17-.44,.24-.91,.24-2.61-.02-5.36-.03-8.95-.03-1.51,0-3.03,0-4.54,0-1.51,0-3.03,0-4.54,0h-.15c-1.46,0-2.93,0-4.39,0-1.51,0-3.03,0-4.54,0-3.54,0-6.26,0-8.8,.03h0c-.53,0-.83-.08-1-.25-.18-.18-.26-.51-.26-1.05,.04-6.35,.04-12.98,0-20.28,0-.5,.07-.8,.24-.96,.16-.16,.43-.23,.88-.23,5.91,.01,11.8,.02,17.7,.02h0Z"/></g><g><path class="cls-1" d="M6.28,36.95c-1.12,0-1.79-.18-2.18-.59-.51-.54-.45-1.45-.38-2.7l.02-.42c.03-.58,.42-.65,.75-.65,.09,0,.17,0,.26,0,.08,0,.15,0,.22,0,3.45-.02,6.89-.02,10.33-.02h19.63c3.28,0,6.56,0,9.84-.03h0c.66,0,1.06,.12,1.29,.39,.23,.26,.3,.66,.22,1.25-.02,.17-.02,.35-.01,.52,0,.1,0,.2,0,.29-.02,1.47-.43,1.9-1.81,1.9-1.47,0-2.95,0-4.42,0,0,0-18.47-.02-21.1-.02-4.2,0-8.4,0-12.6,.04h-.08Z"/><path class="cls-3" d="M44.82,32.64c1.1,0,1.56,.37,1.4,1.55-.04,.27,0,.55,0,.82-.02,1.42-.38,1.82-1.73,1.83-1.48,0-2.96,0-4.44,0-1.76,0-3.53,0-5.29,0h0c-5.28,0-10.57-.01-15.85-.01-4.18,0-8.36,0-12.54,.04h-.08c-2.84,0-2.59-1.18-2.45-3.63,.03-.5,.34-.58,.68-.58,.16,0,.33,.02,.47,.02h0c4.1-.02,8.2-.02,12.3-.02,2.61,0,5.22,0,7.83,0h.41c3.14,0,6.28,0,9.43,0s6.56,0,9.83-.03h.04m0-.15h-.04c-2.82,.02-5.85,.03-9.83,.03-1.57,0-3.14,0-4.71,0-1.57,0-3.14,0-4.71,0H15.17c-3.39,0-6.79,0-10.18,.02h0c-.07,0-.15,0-.22,0-.08,0-.17,0-.26,0-.2,0-.79,0-.83,.72l-.02,.42c-.08,1.27-.13,2.2,.4,2.76,.4,.42,1.08,.61,2.23,.61h.08c3.65-.03,7.63-.04,12.54-.04,2.64,0,5.28,0,7.92,0,2.64,0,5.28,0,7.92,0h5.3c1.48,0,2.96,0,4.44,0,1.42,0,1.86-.47,1.88-1.98,0-.1,0-.2,0-.3,0-.18-.01-.35,.01-.51,.08-.61,0-1.03-.24-1.3-.25-.28-.66-.41-1.31-.41h0Z"/></g><g><path class="cls-1" d="M24.94,42.11v-.08l-1.48,.06h-4.6c-.24,0-.5-.04-.61-.35-.16-.42,.19-.68,.41-.85,.93-.71,1.38-1.65,1.39-2.85,0-.74,.4-1.12,1.14-1.12,2.04,0,4.07,.02,6.11,.02h1.6c.69,0,1.04,.32,1.09,1.02,.07,1.02,.31,2.28,1.51,3.03,.25,.16,.47,.45,.3,.79-.14,.29-.4,.33-.66,.33h-.1l-.09-.08v.08c-1.05,0-2.1,0-3.14,0h-2.86Z"/><path class="cls-3" d="M21.19,37h0c2.07,0,4.14,.02,6.21,.02,.5,0,.99,0,1.49,0h0c.63,0,.96,.27,1.01,.96,.09,1.26,.42,2.39,1.54,3.09,.21,.13,.43,.38,.27,.69-.13,.26-.36,.29-.59,.29-.06,0-.13,0-.19,0h-.01c-1.01,0-2.02,0-3.04,0s-1.92,0-2.88,0h0c-.96-.01-1.92-.01-2.88-.01-1.01,0-2.02,0-3.03,0h0c-.07,0-.15,0-.23,0-.22,0-.44-.03-.54-.3-.14-.36,.16-.59,.39-.77,.94-.73,1.41-1.68,1.42-2.91,0-.72,.39-1.05,1.06-1.05m0-.15c-.78,0-1.21,.43-1.21,1.2-.01,1.18-.46,2.1-1.36,2.8-.23,.18-.61,.47-.44,.94,.15,.4,.52,.4,.68,.4h.23c1.02,0,2.03,0,3.04,0h5.77c1.01,.01,2.02,.01,3.04,0h.2c.18,0,.55,0,.73-.37,.16-.32,.03-.66-.33-.88-.91-.57-1.37-1.49-1.47-2.97-.05-.75-.42-1.09-1.16-1.09h-1.49c-2.07,0-4.14,0-6.21-.01h0Z"/></g><g><path class="cls-1" d="M13.5,44.53c-.44,0-.66-.2-.67-.62,0-.76,.62-1.52,1.49-1.82,.16-.06,.34-.06,.47-.06h19.93c.14,0,.28,.01,.42,.04,.43,.08,1.19,.86,1.47,1.42,.12,.23,.15,.41,.1,.53-.2,.45-.54,.5-.78,.5-.13,0-.27-.02-.41-.04-.12-.02-.25-.03-.36-.03-1.79,.02-3.57,.02-5.35,.02h-10.31c-1.71,.01-3.43,0-5.14,0h0c-.13,0-.26,.02-.4,.04-.16,.02-.32,.04-.47,.04Z"/><path class="cls-3" d="M14.79,42.09c.15,0,.3,.01,.44,.01h0c4.26,0,8.53,0,12.79,0,2.14,0,4.29,0,6.43,0h0c.09,0,.18,0,.27,0,.14,0,.27,0,.4,.03,.55,.11,1.7,1.46,1.52,1.85-.17,.37-.43,.46-.71,.46-.26,0-.53-.07-.77-.07h-.01c-1.8,.02-3.6,.02-5.4,.02-1.7,0-3.4,0-5.1,0h0c-1.68,.01-3.37,.02-5.05,.02s-3.49,0-5.23-.02h-.01c-.24,0-.58,.08-.86,.08-.32,0-.59-.1-.59-.55,0-.75,.64-1.48,1.44-1.75,.14-.05,.29-.06,.44-.06m0-.15c-.14,0-.32,0-.49,.07-.91,.31-1.56,1.11-1.55,1.9,0,.46,.26,.7,.74,.7,.16,0,.32-.02,.49-.04,.14-.02,.27-.04,.38-.04,1.51,.02,3.12,.02,5.24,.02h5.2v-.02h4.95c1.8,0,3.6,0,5.4-.02h0c.12,0,.23,.02,.36,.03,.14,.02,.28,.04,.42,.04,.41,0,.68-.18,.85-.54,.06-.14,.03-.34-.1-.6-.3-.58-1.07-1.37-1.53-1.46-.15-.03-.3-.03-.43-.03h-6.7c-4.26,0-8.53,0-12.79,0-.07,0-.14,0-.22,0-.08,0-.15,0-.23,0h0Z"/></g><g><g><path class="cls-1" d="M29.13,19.99c-1.58,0-2.71-.62-3.7-1.29l1.86-6.63,.09,.06c.9,.6,1.98,1.25,3.56,1.25,1.05,0,2.22-.27,3.58-.84l.14-.06-1.9,6.57c-1.37,.64-2.54,.93-3.63,.93h0Z"/><path class="cls-3" d="M27.33,12.2c1,.67,2.06,1.26,3.6,1.26,.98,0,2.15-.24,3.61-.84l-1.85,6.42c-1.41,.63-2.57,.88-3.56,.88-1.54,0-2.66-.6-3.65-1.27l1.86-6.44m-.09-.24l-.06,.2-1.86,6.44-.03,.1,.09,.06c1,.67,2.14,1.3,3.74,1.3,1.1,0,2.28-.29,3.62-.89l.06-.03,.02-.07,1.85-6.42,.09-.3-.29,.12c-1.35,.56-2.52,.83-3.55,.83-1.55,0-2.63-.64-3.52-1.23l-.17-.11h0Z"/></g><g><path class="cls-1" d="M22.26,25.64c-.95-.64-2.01-1.27-3.57-1.27-1.04,0-2.19,.27-3.55,.83l-.14,.06,1.89-6.61c1.42-.62,2.61-.9,3.68-.9,1.62,0,2.74,.66,3.66,1.29l-1.88,6.65-.09-.06Z"/><path class="cls-3" d="M20.57,17.83c1.55,0,2.61,.59,3.61,1.27l-1.88,6.47h0c-1.01-.68-2.07-1.28-3.61-1.28-.97,0-2.12,.24-3.57,.84l1.85-6.46c1.46-.6,2.63-.84,3.61-.84m0-.15h0c-1.08,0-2.28,.28-3.67,.85l-.07,.03-.02,.07-1.85,6.46-.09,.3,.29-.12c1.34-.55,2.49-.82,3.52-.82,1.54,0,2.59,.62,3.53,1.26l.17,.11,.06-.2,1.88-6.47,.03-.1-.09-.06c-.93-.63-2.05-1.3-3.7-1.3h0Z"/></g><g><path class="cls-1" d="M24.45,18c-.95-.64-2.01-1.27-3.51-1.28h0c-1.02,0-2.2,.29-3.64,.89l-.14,.06,1.9-6.59c1.42-.62,2.61-.9,3.68-.9,1.62,0,2.74,.66,3.65,1.29l-1.85,6.59-.09-.06Z"/><path class="cls-3" d="M22.74,10.26c1.54,0,2.61,.59,3.61,1.27l-1.86,6.41c-.98-.66-2.04-1.28-3.55-1.29h-.04c-.98,0-2.15,.28-3.63,.89l1.86-6.44c1.46-.6,2.63-.84,3.61-.84m0-.15h0c-1.08,0-2.28,.28-3.66,.85l-.07,.03-.02,.07-1.86,6.44-.09,.3,.29-.12c1.44-.59,2.61-.88,3.58-.88h.04c1.48,.01,2.52,.63,3.47,1.27l.17,.11,.06-.2,1.86-6.41,.03-.1-.09-.06c-.93-.63-2.05-1.3-3.7-1.3h0Z"/></g><g><path class="cls-1" d="M26.92,27.47c-1.62,0-2.73-.66-3.65-1.28l1.85-6.59,.09,.06c.9,.6,1.99,1.25,3.56,1.25,1.05,0,2.22-.27,3.59-.84l.14-.06-1.9,6.57c-1.42,.62-2.61,.9-3.68,.9Z"/><path class="cls-3" d="M25.16,19.72c1,.67,2.07,1.26,3.6,1.26,.98,0,2.15-.24,3.61-.84l-1.86,6.42c-1.46,.6-2.63,.84-3.6,.84-1.54,0-2.61-.59-3.61-1.27l1.85-6.41m-.09-.24l-.06,.2-1.85,6.41-.03,.1,.09,.06c.93,.63,2.05,1.3,3.69,1.3,1.08,0,2.27-.28,3.66-.85l.07-.03,.02-.07,1.86-6.42,.09-.3-.29,.12c-1.35,.56-2.52,.83-3.56,.83-1.56,0-2.63-.64-3.52-1.24l-.17-.11h0Z"/></g></g><g><path class="cls-7" d="M34.54,12.62c-3.77,1.56-5.58,.68-7.21-.42l-1.86,6.44c1.63,1.1,3.6,2.01,7.21,.4l1.85-6.42Z"/><path class="cls-5" d="M22.3,25.57c-1.64-1.1-3.41-2.01-7.19-.45l1.85-6.46c3.78-1.56,5.59-.68,7.22,.43l-1.88,6.47h0Z"/><path class="cls-2" d="M24.5,17.94c-.98-.66-2.04-1.28-3.55-1.29-.99,0-2.17,.27-3.67,.89l1.86-6.44c3.77-1.56,5.59-.68,7.22,.43l-1.86,6.41Z"/><path class="cls-6" d="M25.16,19.72c1.63,1.1,3.45,1.98,7.22,.42l-1.86,6.42c-3.77,1.56-5.58,.68-7.21-.43l1.85-6.41Z"/></g></g></svg>