<?xml version="1.0" encoding="UTF-8"?><svg id="b_w" xmlns="http://www.w3.org/2000/svg" viewBox="0 0 50 50"><defs><style>.cls-1{fill:#fff;}.cls-2{fill:#7c7c7c;}.cls-3{fill:#d2d2d2;}</style></defs><g id="Layer_2"><path class="cls-3" d="M9.18,.5h31.65c4.8,0,8.68,3.98,8.68,8.9v31.2c0,4.92-3.88,8.9-8.68,8.9H9.18c-4.8,0-8.68-3.98-8.68-8.9V9.4C.5,4.48,4.38,.5,9.18,.5Z"/><g id="Ps"><g><path class="cls-1" d="M11.77,35.21c-.15,0-.32-.06-.32-.35V13.32c0-.19,.1-.31,.28-.31h0c.35,0,.67,0,1.14-.02,.26-.01,.52-.02,.79-.02,.25,0,.5,0,.77-.02,.29-.01,.58-.02,.89-.02,.29,0,.58-.01,.89-.02,.63-.02,1.25-.02,1.86-.02,1.7,0,3.09,.21,4.23,.65,1.03,.36,1.99,.96,2.76,1.73,.66,.68,1.18,1.51,1.51,2.42,.32,.92,.47,1.81,.47,2.75,0,1.81-.42,3.32-1.24,4.5-.82,1.18-1.97,2.07-3.32,2.58-1.3,.49-2.76,.72-4.62,.72-.49,0-.82,0-1.03-.02-.19-.02-.45-.02-.79-.02v6.65c.02,.17-.1,.34-.29,.37h-3.97Zm4.28-11.12c.3,.02,.52,.04,.72,.04h1.08c.8,0,1.58-.13,2.32-.37,.62-.18,1.18-.55,1.64-1.09,.41-.5,.61-1.19,.61-2.11,.02-.64-.14-1.27-.46-1.83-.34-.54-.83-.94-1.39-1.16-.66-.28-1.41-.42-2.2-.42h-.18c-.53,0-1,0-1.39,.02-.13,0-.23,0-.33,0-.23,0-.4,.01-.5,.03l.06,6.89Z"/><path class="cls-2" d="M18.06,12.96c1.67,0,3.06,.21,4.21,.65,1.02,.36,1.96,.94,2.74,1.72,.65,.67,1.16,1.49,1.49,2.39,.31,.88,.47,1.78,.47,2.72,0,1.8-.41,3.29-1.22,4.46-.82,1.17-1.96,2.05-3.29,2.55-1.39,.52-2.92,.71-4.59,.71-.49,0-.82,0-1.02-.02-.2-.02-.49-.02-.88-.02v6.72c.02,.15-.08,.27-.22,.29h-3.96c-.16,0-.24-.08-.24-.27V13.32c0-.15,.06-.23,.2-.23,.35,0,.67,0,1.14-.02,.49-.02,1-.02,1.55-.04,.55-.02,1.14-.02,1.78-.04,.63-.02,1.25-.02,1.86-.02m-1.25,4.15c-.12,0-.23,0-.33,0-.24,0-.41,.01-.51,.03v7.04c.29,.02,.55,.04,.8,.04h1.08c.8,0,1.59-.13,2.35-.38,.65-.19,1.23-.59,1.67-1.11,.43-.52,.63-1.24,.63-2.16,.02-.65-.14-1.3-.47-1.86-.35-.54-.84-.96-1.43-1.19-.7-.29-1.46-.42-2.23-.42-.06,0-.12,0-.18,0-.53,0-1,0-1.39,.02m1.25-4.3c-.6,0-1.23,0-1.86,.02-.3,.01-.6,.02-.89,.02-.31,0-.6,.01-.89,.02-.27,.01-.52,.02-.77,.02-.27,0-.53,.01-.78,.02-.47,.02-.79,.02-1.14,.02-.22,0-.35,.14-.35,.38v21.55c0,.27,.14,.42,.39,.42h3.96c.25-.04,.4-.24,.37-.46v-6.55c.31,0,.54,0,.71,.02,.21,.02,.54,.02,1.04,.02,1.86,0,3.34-.23,4.65-.72,1.37-.52,2.53-1.42,3.36-2.61,.83-1.19,1.25-2.72,1.25-4.55,0-.94-.16-1.85-.48-2.77-.33-.92-.86-1.76-1.52-2.44-.79-.78-1.75-1.39-2.79-1.75-1.15-.44-2.54-.66-4.26-.66h0Zm-1.25,4.45h0c.38-.02,.85-.02,1.38-.02,.06,0,.12,0,.18,0,.79,0,1.52,.14,2.17,.41,.55,.22,1.02,.61,1.36,1.14,.31,.54,.47,1.15,.45,1.78,0,.9-.2,1.57-.6,2.07-.45,.52-1,.89-1.6,1.06-.74,.25-1.52,.37-2.31,.37h-1.08c-.2,0-.42-.01-.65-.03v-6.76c.08,0,.2-.01,.36-.01,.1,0,.2,0,.32,0h0Z"/></g><g><path class="cls-1" d="M34.23,35.65c-.98,0-1.89-.09-2.79-.27-.72-.13-1.44-.36-2.1-.68-.19-.11-.29-.29-.27-.47v-3.63s0-.18,.11-.25h.02l.09-.04s.1,.02,.16,.06c.78,.47,1.6,.8,2.51,1.02,.77,.21,1.57,.31,2.39,.31,.73,0,1.29-.1,1.66-.28,.3-.14,.51-.47,.51-.81,0-.26-.15-.52-.46-.78-.29-.24-.9-.54-1.98-.97-1.04-.38-1.99-.87-2.91-1.52-.64-.47-1.18-1.09-1.57-1.81-.33-.69-.5-1.44-.48-2.17,0-.9,.24-1.76,.7-2.57,.52-.85,1.27-1.52,2.18-1.96,.95-.5,2.14-.74,3.65-.74,.85,0,1.7,.06,2.54,.19,.6,.08,1.2,.25,1.77,.49,.1,.03,.2,.13,.24,.23,.03,.1,.05,.19,.05,.28v3.41c0,.11-.05,.22-.13,.27-.13,.03-.2,.04-.26,.04-.07,0-.13-.01-.18-.04-.59-.32-1.23-.55-1.94-.71-.82-.18-1.56-.27-2.27-.27h-.16c-.33,0-.69,.05-1.05,.14-.25,.06-.46,.2-.59,.39-.09,.15-.15,.35-.15,.52,0,.16,.07,.33,.19,.5,.16,.21,.39,.39,.67,.54,.44,.23,.92,.47,1.44,.69,1.08,.37,2.15,.89,3.16,1.53,.7,.45,1.25,1.05,1.64,1.76,.34,.69,.5,1.43,.48,2.19,.02,.99-.27,1.99-.81,2.82-.58,.85-1.39,1.51-2.32,1.89-1.02,.45-2.27,.68-3.72,.68Z"/><path class="cls-2" d="M35.64,18.15c.84,0,1.69,.06,2.53,.19,.61,.08,1.2,.25,1.76,.48,.08,.02,.16,.1,.2,.19,.02,.08,.04,.17,.04,.25v3.41c0,.08-.04,.17-.1,.21-.09,.02-.16,.03-.22,.03s-.1-.01-.15-.03c-.61-.34-1.27-.57-1.96-.71-.76-.17-1.51-.27-2.29-.27-.05,0-.11,0-.16,0-.36,0-.73,.06-1.07,.15-.27,.06-.49,.21-.63,.42-.1,.17-.16,.38-.16,.57s.08,.38,.2,.54c.18,.23,.43,.42,.69,.57,.47,.25,.96,.48,1.45,.69,1.1,.38,2.16,.9,3.14,1.53,.67,.44,1.22,1.03,1.61,1.74,.33,.67,.49,1.4,.47,2.16,.02,.98-.27,1.97-.8,2.79-.57,.84-1.37,1.49-2.29,1.86-1,.44-2.23,.67-3.7,.67-.94,0-1.86-.08-2.78-.27-.71-.13-1.43-.36-2.08-.67-.14-.08-.25-.23-.22-.4v-3.64c0-.06,.02-.15,.08-.19,.02-.02,.05-.02,.07-.02,.04,0,.08,.02,.11,.04,.8,.48,1.63,.82,2.53,1.03,.78,.21,1.59,.31,2.41,.31s1.33-.1,1.69-.29c.33-.15,.55-.5,.55-.88,0-.29-.16-.57-.49-.84-.33-.27-1-.59-2-.98-1.04-.38-2-.88-2.9-1.51-.63-.46-1.16-1.07-1.55-1.78-.33-.67-.49-1.4-.47-2.14,0-.9,.24-1.76,.69-2.53,.51-.84,1.27-1.51,2.14-1.93,.96-.5,2.16-.73,3.61-.73m0-.15c-1.51,0-2.72,.25-3.68,.75-.92,.44-1.68,1.12-2.2,1.98-.48,.82-.72,1.7-.72,2.61-.02,.75,.15,1.51,.48,2.2,.4,.73,.95,1.36,1.6,1.84,.93,.65,1.89,1.15,2.94,1.53,1.06,.42,1.67,.72,1.96,.96,.29,.24,.44,.48,.44,.72,0,.32-.19,.62-.46,.74-.36,.19-.91,.28-1.63,.28-.81,0-1.61-.1-2.37-.31-.9-.21-1.72-.54-2.49-1.01-.06-.04-.13-.07-.19-.07-.06,0-.11,.02-.15,.05-.09,.06-.15,.18-.15,.31v3.64c-.02,.2,.09,.4,.3,.53,.68,.33,1.41,.56,2.13,.69,.9,.18,1.82,.27,2.8,.27,1.46,0,2.73-.23,3.76-.68,.95-.39,1.76-1.05,2.35-1.92,.55-.85,.84-1.87,.82-2.87,.02-.77-.14-1.52-.48-2.22-.4-.73-.96-1.34-1.67-1.8-1.02-.65-2.09-1.17-3.18-1.54-.51-.22-.99-.45-1.43-.68-.27-.15-.49-.33-.65-.53-.11-.15-.17-.31-.17-.45,0-.16,.05-.34,.14-.49,.12-.17,.31-.3,.54-.35,.36-.1,.71-.15,1.03-.15,.05,0,.1,0,.15,0,.71,0,1.45,.09,2.26,.27,.71,.15,1.34,.38,1.92,.7,.07,.03,.14,.05,.22,.05,.07,0,.15-.01,.26-.04h.03l.02-.02c.1-.07,.17-.2,.17-.33v-3.41c0-.1-.02-.2-.05-.29-.06-.13-.17-.26-.31-.3-.56-.24-1.16-.4-1.77-.48-.84-.13-1.7-.19-2.55-.19h0Z"/></g></g></g></svg>