<?xml version="1.0" encoding="UTF-8"?><svg id="Layer_1" xmlns="http://www.w3.org/2000/svg" viewBox="0 0 50 50"><defs><style>.cls-1{fill:#fff;}.cls-2{fill:#7c7c7c;}.cls-3{fill:#c1c1c1;}.cls-4{fill:#d0d0d0;}</style></defs><path class="cls-4" d="M9.18,.5h31.65c4.8,0,8.68,3.98,8.68,8.9v31.2c0,4.92-3.88,8.9-8.68,8.9H9.18c-4.8,0-8.68-3.98-8.68-8.9V9.4C.5,4.48,4.38,.5,9.18,.5Z"/><g><g><path class="cls-1" d="M32.02,45.66c-2.48,0-4.86-.54-7.08-1.61-2.1-1.01-3.93-2.44-5.42-4.24-1.44-1.73-2.48-3.7-3.1-5.85-.3-1.04-.49-2.32-.5-2.97,0-.49,.06-1.22,.1-1.57l-8.97,8c-.78,.69-1.72,1.07-2.64,1.07s-1.71-.39-2.22-1.09c-1-1.4-.51-3.64,1.11-4.99l16.61-13.89-9.25,.02h0c-.78-.04-1.47-.35-1.9-.88-.4-.5-.54-1.13-.4-1.79,.29-1.4,1.8-2.53,3.36-2.53l18.3-.02-5.98-5.3h0c-.4-.4-.61-.9-.59-1.43,.02-.6,.35-1.19,.9-1.61,.52-.4,1.19-.62,1.89-.62s1.34,.22,1.81,.61l14.62,12.24h0c1.43,1.22,2.62,2.66,3.54,4.28,1.04,1.82,1.7,3.8,1.98,5.9,.14,1.08,.17,2.17,.1,3.25-.08,1.1-.28,2.21-.58,3.27-.62,2.15-1.66,4.12-3.1,5.86-1.49,1.8-3.32,3.24-5.42,4.26-2.23,1.08-4.63,1.64-7.12,1.64h-.04Zm.04-27.15c-2.41,0-4.73,.88-6.53,2.48-.92,.82-1.67,1.79-2.22,2.87-.56,1.11-.9,2.31-1,3.58-.1,1.29,.05,2.57,.46,3.8,.42,1.26,1.09,2.4,1.99,3.4,1.88,2.08,4.46,3.22,7.28,3.22,2.84,0,5.43-1.16,7.31-3.25,.9-1,1.57-2.15,1.99-3.41,.41-1.22,.56-2.5,.46-3.8-.1-1.26-.44-2.46-1-3.57-.55-1.08-1.29-2.04-2.22-2.86-1.8-1.59-4.11-2.46-6.52-2.46v0Z"/><path class="cls-2" d="M26.23,4.42c.65,0,1.29,.2,1.76,.59l.04,.03,14.52,12.15h0c1.44,1.22,2.65,2.66,3.59,4.31,1.03,1.8,1.69,3.77,1.97,5.87,.14,1.08,.17,2.16,.1,3.23-.08,1.09-.27,2.18-.58,3.26-.61,2.12-1.64,4.09-3.08,5.83-1.48,1.78-3.3,3.22-5.4,4.24-2.21,1.07-4.6,1.63-7.09,1.63h-.04c-2.47,0-4.85-.54-7.05-1.61-2.1-1.01-3.92-2.44-5.4-4.22-1.44-1.73-2.48-3.7-3.09-5.82-.29-1.01-.48-2.29-.49-2.95-.01-.66,.12-1.76,.12-1.76l-9.12,8.13c-.8,.7-1.73,1.05-2.59,1.05s-1.65-.35-2.15-1.06c-.99-1.38-.48-3.57,1.09-4.89,.02-.02,.04-.03,.06-.05l16.7-13.97-9.36,.02h0c-1.59-.01-2.62-1.18-2.33-2.58,.29-1.38,1.76-2.47,3.28-2.47h.03l18.47-.02-6.06-5.37h0c-.94-.85-.82-2.18,.24-2.99,.52-.4,1.19-.6,1.84-.6m5.81,33.51h.02c2.85,0,5.48-1.19,7.35-3.27,.92-1.02,1.59-2.19,2.01-3.43,.41-1.22,.57-2.52,.46-3.83-.1-1.28-.45-2.5-1.01-3.6-.55-1.08-1.3-2.06-2.23-2.89-1.82-1.61-4.14-2.48-6.57-2.48h-.01c-2.43,0-4.76,.88-6.58,2.5-.93,.83-1.69,1.81-2.24,2.9-.56,1.1-.91,2.32-1.01,3.6-.1,1.31,.05,2.6,.46,3.83,.42,1.24,1.09,2.41,2.01,3.43,1.87,2.08,4.5,3.25,7.34,3.25M26.23,4.27c-.71,0-1.4,.22-1.93,.63-.57,.43-.91,1.04-.93,1.67-.02,.52,.17,1.02,.55,1.42h0l.14,.13,5.76,5.11-18.07,.02c-1.64,0-3.15,1.14-3.46,2.59-.14,.68,0,1.34,.42,1.86,.42,.52,1.09,.84,1.86,.89h9.14L3.32,32.29l-.03,.02-.04,.03c-1.64,1.37-2.14,3.65-1.12,5.09,.52,.72,1.33,1.12,2.28,1.12s1.89-.39,2.69-1.09l8.83-7.87c-.04,.38-.09,.97-.08,1.39,.01,.65,.2,1.94,.5,2.99,.62,2.16,1.67,4.14,3.11,5.88,1.5,1.81,3.34,3.24,5.45,4.26,2.23,1.08,4.62,1.62,7.12,1.62,2.54,0,4.95-.56,7.19-1.65,2.11-1.03,3.95-2.47,5.45-4.28,1.44-1.74,2.49-3.72,3.11-5.89,.31-1.07,.51-2.18,.59-3.29,.08-1.08,.04-2.18-.1-3.26-.27-2.1-.94-4.1-1.99-5.92-.92-1.61-2.1-3.04-3.5-4.25h0l-.12-.1L28.13,4.93l-.03-.03c-.49-.41-1.15-.63-1.86-.63h0Zm5.81,33.66v-.15c-2.8,0-5.36-1.14-7.22-3.2-.89-.99-1.56-2.12-1.98-3.37-.4-1.21-.56-2.48-.45-3.77,.1-1.25,.43-2.45,.99-3.55,.54-1.08,1.28-2.03,2.2-2.85,1.78-1.59,4.09-2.46,6.48-2.46,2.4,0,4.7,.87,6.48,2.44,.92,.81,1.66,1.77,2.2,2.84,.56,1.1,.89,2.29,.99,3.54,.1,1.29-.05,2.56-.45,3.77-.42,1.25-1.08,2.39-1.98,3.38-1.87,2.07-4.44,3.22-7.24,3.22l-.02,.15h0Z"/></g><g><path class="cls-3" d="M32.27,34.16c-1.79,0-3.44-.71-4.66-2-1.18-1.25-1.78-2.89-1.69-4.6,.08-1.64,.8-3.16,2.01-4.28,1.18-1.09,2.72-1.69,4.34-1.69,1.62,0,3.16,.6,4.34,1.69,1.21,1.12,1.93,2.64,2.02,4.28,.09,1.71-.52,3.35-1.7,4.6-1.22,1.29-2.87,2-4.65,2Z"/><path class="cls-2" d="M32.27,21.66c1.65,0,3.16,.63,4.29,1.67,1.14,1.06,1.9,2.54,1.99,4.23,.09,1.74-.55,3.35-1.68,4.55-1.14,1.22-2.78,1.98-4.6,1.98s-3.46-.76-4.6-1.98c-1.12-1.19-1.76-2.81-1.67-4.55,.09-1.69,.85-3.18,1.99-4.23,1.12-1.04,2.64-1.67,4.29-1.67m0-.15h0c-1.64,0-3.19,.61-4.39,1.71-1.23,1.13-1.95,2.67-2.04,4.34-.09,1.73,.52,3.39,1.71,4.66,1.23,1.31,2.91,2.03,4.71,2.03s3.48-.72,4.71-2.03c1.19-1.27,1.8-2.92,1.72-4.66-.09-1.66-.81-3.2-2.04-4.34-1.19-1.1-2.75-1.71-4.39-1.71h0Z"/></g></g></svg>