<?xml version="1.0" encoding="UTF-8"?><svg id="color" xmlns="http://www.w3.org/2000/svg" xmlns:xlink="http://www.w3.org/1999/xlink" viewBox="0 0 50 50"><defs><style>.cls-1{fill:#fff;}.cls-2{fill:#f8682c;}.cls-3{filter:url(#drop-shadow-2);}.cls-4{fill:#00b4f1;}.cls-5{fill:#ffc300;}.cls-6{fill:#91c300;}</style><filter id="drop-shadow-2" filterUnits="userSpaceOnUse"><feOffset dx="2.16" dy="2.16"/><feGaussianBlur result="blur" stdDeviation="2.16"/><feFlood flood-color="#000" flood-opacity=".75"/><feComposite in2="blur" operator="in"/><feComposite in="SourceGraphic"/></filter></defs><g class="cls-3"><path class="cls-1" d="M22.22,31.02c-6.56,0-13.12,0-19.68,0-1.52,0-1.52-.02-1.52-1.55,0-7.74,0-15.49,0-23.23,0-1.82,.39-2.23,2.09-2.23,12.75,0,25.49,0,38.24,0,1.81,0,2.11,.31,2.11,2.16,0,7.78-.02,15.57,.02,23.35,0,1.2-.36,1.55-1.47,1.54-6.6-.04-13.19-.02-19.79-.02h0Zm0-1.99h0c6,0,12-.03,18,.02,1.03,0,1.35-.32,1.34-1.41-.04-6.76-.04-13.52,0-20.28,0-1.12-.37-1.38-1.36-1.38-12,.03-24,.03-36,0-.97,0-1.29,.3-1.28,1.34,.04,6.76,.04,13.52,0,20.28,0,1.16,.36,1.46,1.41,1.45,5.96-.04,11.93-.02,17.89-.02Z"/><path class="cls-1" d="M22.36,31.12c6.56,0,13.12,.02,19.68-.02,1.13,0,1.6,.36,1.44,1.55-.04,.27,0,.55,0,.82-.02,1.42-.38,1.82-1.73,1.83-3.24,.01-6.48,0-9.73,0-9.47,0-18.93-.05-28.4,.03-2.93,.02-2.67-1.16-2.53-3.63,.04-.74,.71-.56,1.16-.56,4.1-.02,8.2-.02,12.3-.02,2.61,0,5.22,0,7.83,0Z"/><path class="cls-1" d="M22.26,40.48c-1.97,0-3.95,0-5.92,0-.29,0-.65,.07-.78-.29-.14-.36,.16-.59,.39-.77,.94-.73,1.41-1.68,1.42-2.91,0-.73,.39-1.05,1.07-1.05,2.57,0,5.14,.02,7.7,.01,.63,0,.96,.27,1.01,.96,.09,1.26,.42,2.39,1.54,3.09,.21,.13,.43,.38,.27,.69-.17,.34-.51,.28-.8,.29-1.97,0-3.95,0-5.92,0h0Z"/><path class="cls-1" d="M21.9,42.84c-3.43,0-6.85,.02-10.28-.02-.52,0-1.46,.38-1.47-.47,0-.75,.64-1.48,1.44-1.75,.27-.09,.59-.05,.89-.05,6.41,0,12.81,0,19.22,0,.22,0,.45-.01,.67,.03,.55,.11,1.7,1.46,1.52,1.85-.32,.7-.98,.38-1.49,.38-3.5,.03-7,.02-10.5,.02h0Z"/><g><path class="cls-6" d="M31.79,11.07c-3.77,1.56-5.58,.68-7.21-.42l-1.86,6.44c1.63,1.1,3.6,2.01,7.21,.4l1.85-6.42Z"/><path class="cls-4" d="M19.55,24.03c-1.64-1.1-3.41-2.01-7.19-.45l1.85-6.46c3.78-1.56,5.59-.68,7.22,.43l-1.88,6.47h0Z"/><path class="cls-2" d="M21.75,16.39c-.98-.66-2.04-1.28-3.55-1.29-.99,0-2.17,.27-3.67,.89l1.86-6.44c3.77-1.56,5.59-.68,7.22,.43l-1.86,6.41Z"/><path class="cls-5" d="M22.41,18.18c1.63,1.1,3.45,1.98,7.22,.42l-1.86,6.42c-3.77,1.56-5.58,.68-7.21-.43l1.85-6.41Z"/></g></g></svg>