<?xml version="1.0" encoding="UTF-8"?><svg id="Layer_1" xmlns="http://www.w3.org/2000/svg" viewBox="0 0 50 50"><defs><style>.cls-1{fill:#f24e1e;}.cls-2{fill:#a259ff;}.cls-3{fill:#ff7262;}.cls-4{fill:#1abcfe;}.cls-5{fill:none;stroke:#d0d0d0;stroke-miterlimit:10;stroke-width:.25px;}.cls-6{fill:#0acf83;}</style></defs><path class="cls-5" d="M9.18,.5h31.65c4.8,0,8.68,3.98,8.68,8.9v31.2c0,4.92-3.88,8.9-8.68,8.9H9.18c-4.8,0-8.68-3.98-8.68-8.9V9.4C.5,4.48,4.38,.5,9.18,.5Z"/><g><path id="path0_fill" class="cls-6" d="M17.5,47.5c4.14,0,7.5-3.36,7.5-7.5v-7.5h-7.5c-4.14,0-7.5,3.36-7.5,7.5s3.36,7.5,7.5,7.5Z"/><path id="path1_fill" class="cls-2" d="M10,25c0-4.14,3.36-7.5,7.5-7.5h7.5v15h-7.5c-4.14,0-7.5-3.36-7.5-7.5Z"/><path id="path1_fill-2" class="cls-1" d="M10,10c0-4.14,3.36-7.5,7.5-7.5h7.5v15h-7.5c-4.14,0-7.5-3.36-7.5-7.5Z"/><path id="path2_fill" class="cls-3" d="M25,2.5h7.5c4.14,0,7.5,3.36,7.5,7.5s-3.36,7.5-7.5,7.5h-7.5V2.5Z"/><path id="path3_fill" class="cls-4" d="M40,25c0,4.14-3.36,7.5-7.5,7.5s-7.5-3.36-7.5-7.5,3.36-7.5,7.5-7.5,7.5,3.36,7.5,7.5Z"/></g></svg>