<?xml version="1.0" encoding="UTF-8"?><svg id="color" xmlns="http://www.w3.org/2000/svg" viewBox="0 0 50 50"><defs><style>.cls-1{fill:#99f;}.cls-2{fill:#00005b;}</style></defs><g id="Layer_2"><path class="cls-2" d="M9.18,.5h31.65c4.8,0,8.68,3.98,8.68,8.9v31.2c0,4.92-3.88,8.9-8.68,8.9H9.18c-4.8,0-8.68-3.98-8.68-8.9V9.4C.5,4.48,4.38,.5,9.18,.5Z"/><g id="Pr"><path class="cls-1" d="M12.14,34.86V13.32c0-.15,.06-.23,.2-.23,.35,0,.67,0,1.14-.02,.49-.02,1-.02,1.55-.04,.55-.02,1.14-.02,1.78-.04,.63-.02,1.25-.02,1.86-.02,1.67,0,3.06,.21,4.21,.65,1.02,.36,1.96,.94,2.74,1.72,.65,.67,1.16,1.49,1.49,2.39,.31,.88,.47,1.78,.47,2.72,0,1.8-.41,3.29-1.22,4.46s-1.96,2.05-3.29,2.55c-1.39,.52-2.92,.71-4.59,.71-.49,0-.82,0-1.02-.02s-.49-.02-.88-.02v6.72c.02,.15-.08,.27-.22,.29h-3.96c-.16,0-.24-.08-.24-.27Zm4.45-17.74v7.04c.29,.02,.55,.04,.8,.04h1.08c.8,0,1.59-.13,2.35-.38,.65-.19,1.22-.59,1.67-1.11,.43-.52,.63-1.24,.63-2.16,.02-.65-.14-1.3-.47-1.86-.35-.54-.84-.96-1.43-1.19-.76-.31-1.57-.44-2.41-.42-.53,0-1,0-1.39,.02-.41-.02-.69,0-.84,.02h0Z"/><path class="cls-1" d="M30.43,18.34h3.57c.2,0,.37,.15,.43,.34,.06,.17,.1,.34,.12,.52,.04,.21,.08,.44,.1,.65,.02,.23,.04,.48,.04,.75,.61-.73,1.35-1.34,2.18-1.8,.94-.54,2.02-.82,3.1-.82,.14-.02,.27,.08,.29,.23v4.17c0,.17-.1,.23-.33,.23-.74-.02-1.49,.04-2.21,.21-.59,.13-1.16,.31-1.71,.57-.39,.19-.76,.44-1.04,.77v10.68c0,.21-.08,.29-.27,.29h-4.02c-.16,.02-.31-.08-.33-.25v-11.68c0-.5,0-1.03-.02-1.57s-.02-1.09-.04-1.63c0-.48-.04-.94-.08-1.42-.02-.1,.04-.21,.14-.23,0-.02,.04-.02,.06,0h0Z"/></g></g></svg>