<?xml version="1.0" encoding="UTF-8"?><svg id="Layer_1" xmlns="http://www.w3.org/2000/svg" viewBox="0 0 50 50"><defs><style>.cls-1{fill:#fff;stroke:#7c7c7c;stroke-miterlimit:10;stroke-width:.15px;}.cls-2{fill:#8e8e8e;}.cls-3{fill:#d0d0d0;}</style></defs><path class="cls-3" d="M9.18,.5h31.65c4.8,0,8.68,3.98,8.68,8.9v31.2c0,4.92-3.88,8.9-8.68,8.9H9.18c-4.8,0-8.68-3.98-8.68-8.9V9.4C.5,4.48,4.38,.5,9.18,.5Z"/><g><g><path class="cls-1" d="M3.93,21.73h1.67l2.18,3.56v-3.56h1.69v6.44h-1.69l-2.17-3.53v3.53h-1.68v-6.44Z"/><path class="cls-1" d="M10.45,21.73h1.61v1.22h-1.61v-1.22Zm0,1.77h1.61v4.66h-1.61v-4.66Z"/><path class="cls-1" d="M16.05,26.34l1.53,.19c-.08,.35-.22,.66-.41,.92-.19,.26-.44,.46-.74,.6-.3,.14-.68,.21-1.14,.21s-.82-.05-1.11-.14c-.3-.09-.55-.24-.76-.45-.21-.21-.38-.45-.5-.73s-.18-.65-.18-1.11,.07-.88,.22-1.2c.11-.23,.26-.44,.44-.63,.19-.19,.38-.32,.58-.41,.31-.14,.72-.21,1.21-.21,.68,0,1.21,.14,1.57,.41,.36,.27,.61,.67,.76,1.19l-1.51,.22c-.05-.2-.13-.35-.26-.45-.13-.1-.29-.15-.5-.15-.27,0-.48,.11-.65,.32s-.25,.53-.25,.96c0,.38,.08,.67,.24,.87s.37,.3,.62,.3c.21,0,.39-.06,.53-.18,.14-.12,.25-.3,.32-.55Z"/><path class="cls-1" d="M22.81,26.28h-3.22c.03,.29,.1,.5,.21,.64,.16,.2,.36,.3,.61,.3,.16,0,.31-.04,.45-.13,.09-.06,.18-.15,.28-.29l1.58,.16c-.24,.47-.53,.8-.88,1.01-.34,.2-.83,.31-1.47,.31-.56,0-.99-.09-1.31-.26-.32-.17-.58-.45-.79-.83-.21-.38-.31-.82-.31-1.34,0-.73,.21-1.32,.63-1.77,.42-.45,1-.68,1.74-.68,.6,0,1.07,.1,1.42,.3,.35,.2,.61,.49,.79,.88,.18,.38,.27,.88,.27,1.5v.2Zm-1.64-.86c-.03-.35-.12-.59-.25-.74s-.31-.22-.54-.22c-.25,0-.46,.11-.61,.34-.1,.14-.16,.35-.19,.63h1.58Z"/></g><g><path class="cls-2" d="M23.49,21.73h1.79v4.85h2.79v1.58h-4.58v-6.44Z"/><path class="cls-2" d="M30.09,25.01l-1.54-.18c.06-.3,.14-.53,.25-.7,.11-.17,.27-.32,.47-.44,.15-.09,.35-.16,.61-.21s.54-.08,.84-.08c.48,0,.87,.03,1.16,.09,.29,.06,.54,.19,.73,.38,.14,.13,.24,.32,.32,.56,.08,.24,.12,.47,.12,.69v2.06c0,.22,.01,.39,.04,.52,.02,.12,.08,.28,.16,.48h-1.51c-.06-.12-.1-.21-.12-.27-.02-.06-.04-.16-.06-.3-.21,.23-.42,.39-.63,.48-.28,.13-.62,.19-.99,.19-.5,0-.88-.13-1.14-.39-.26-.26-.39-.58-.39-.95,0-.35,.09-.65,.28-.87s.53-.4,1.03-.51c.6-.13,.99-.23,1.17-.28,.18-.05,.37-.12,.57-.21,0-.22-.04-.37-.12-.46-.08-.09-.23-.13-.43-.13-.26,0-.46,.05-.59,.14-.1,.07-.19,.21-.25,.41Zm1.39,.94c-.22,.09-.45,.17-.69,.23-.33,.1-.53,.19-.62,.29-.09,.1-.13,.21-.13,.33,0,.14,.04,.26,.13,.35,.09,.09,.22,.13,.39,.13s.35-.05,.5-.15c.15-.1,.26-.21,.33-.35,.06-.14,.1-.32,.1-.54v-.28Z"/><path class="cls-2" d="M33.94,21.73h1.62v2.23c.16-.19,.34-.33,.55-.42,.2-.09,.43-.14,.68-.14,.51,0,.93,.2,1.27,.61,.33,.41,.5,.99,.5,1.76,0,.51-.08,.96-.23,1.35-.15,.39-.36,.68-.63,.87-.27,.19-.57,.29-.9,.29-.28,0-.54-.07-.77-.2-.18-.11-.37-.3-.58-.59v.69h-1.51v-6.44Zm1.61,4.09c0,.4,.07,.69,.2,.87,.14,.18,.31,.27,.52,.27,.19,0,.35-.09,.48-.27,.13-.18,.2-.48,.2-.89,0-.37-.06-.64-.19-.81-.13-.17-.28-.26-.46-.26-.22,0-.4,.09-.54,.27-.14,.18-.21,.45-.21,.82Z"/><path class="cls-2" d="M43.83,26.28h-3.22c.03,.29,.1,.5,.21,.64,.16,.2,.36,.3,.61,.3,.16,0,.31-.04,.45-.13,.09-.06,.18-.15,.28-.29l1.58,.16c-.24,.47-.53,.8-.88,1.01-.34,.2-.83,.31-1.47,.31-.56,0-.99-.09-1.31-.26-.32-.17-.58-.45-.79-.83-.21-.38-.31-.82-.31-1.34,0-.73,.21-1.32,.63-1.77,.42-.45,1-.68,1.74-.68,.6,0,1.07,.1,1.42,.3,.35,.2,.61,.49,.79,.88,.18,.38,.27,.88,.27,1.5v.2Zm-1.64-.86c-.03-.35-.12-.59-.25-.74s-.31-.22-.54-.22c-.25,0-.46,.11-.61,.34-.1,.14-.16,.35-.19,.63h1.58Z"/><path class="cls-2" d="M44.46,21.73h1.61v6.44h-1.61v-6.44Z"/></g></g></svg>