<?xml version="1.0" encoding="UTF-8"?><svg id="b_w" xmlns="http://www.w3.org/2000/svg" viewBox="0 0 50 50"><defs><style>.cls-1{fill:#fff;}.cls-2{fill:#7c7c7c;}.cls-3{fill:#d0d0d0;}</style></defs><path className="cls-3" d="M9.18,.5h31.65c4.8,0,8.68,3.98,8.68,8.9v31.2c0,4.92-3.88,8.9-8.68,8.9H9.18c-4.8,0-8.68-3.98-8.68-8.9V9.4C.5,4.48,4.38,.5,9.18,.5Z"/><g id="_64"><path className="cls-1" d="M13.01,40.28c-.8,0-1.56-.29-2.13-.82-.64-.59-.93-1.45-.76-2.29,.53-2.88,6.05-5.42,8.4-6.38,1.8-3.24,3.17-7.2,4.18-10.09-1.65-3.89-2.06-7.73-1.01-9.6,.45-.77,1.26-1.25,2.13-1.27,2.51,0,3.4,2.46,3.4,4.77-.08,2.38-.56,4.89-1.43,7.44,.4,.69,1.91,3.33,4.17,5.58,1.55-.3,3.06-.44,4.41-.44,2.71,0,4.59,.56,5.6,1.65,.63,.73,.82,1.76,.51,2.67-.29,.8-1.09,1.75-3.21,1.75-1.52,0-4.58-.46-7.99-3.52-3.6,.7-6.7,1.76-7.56,2.07-2.11,3.85-5.35,8.49-8.6,8.49h-.09Zm4.57-7.17c-3.32,1.54-5.59,3.26-5.8,4.41-.06,.27,.03,.53,.24,.7,.12,.11,.31,.17,.48,.17,1.13,0,3.06-2.02,5.07-5.28Zm13.58-4c1.25,1.03,2.74,1.78,4.3,2.18,.25,.05,.48,.08,.71,.08,.91,0,1.39-.46,1.47-.92,.17-.94-.54-1.28-1.17-1.4-.6-.12-1.34-.18-2.19-.18-1.2,0-2.39,.12-3.12,.24Zm-6.22-4.58c-.36,1.04-1.24,3.31-1.9,4.68,1.82-.59,3.94-1.07,4.51-1.18-.67-.75-1.84-2.23-2.61-3.5Zm-1.14-12.98c-.26,0-.51,.16-.65,.42-.39,.68-.75,2.92,.56,6.61,.54-1.91,.87-3.71,.95-5.35,0-.76-.15-1.68-.86-1.68Z"/><path className="cls-2" d="M23.82,9.9c2.45,0,3.33,2.43,3.33,4.69-.08,2.49-.61,5.03-1.43,7.41,.51,.94,2.02,3.5,4.19,5.65,.71-.12,2.52-.42,4.46-.42,2.1,0,4.36,.35,5.54,1.63,.61,.71,.8,1.72,.49,2.6-.29,.77-1.06,1.7-3.14,1.7-1.53,0-4.55-.46-7.94-3.5-2.92,.54-5.82,1.4-7.64,2.05-2.16,3.92-5.37,8.48-8.57,8.48-.03,0-.06,0-.09,0-.77,0-1.51-.27-2.08-.8-.61-.57-.9-1.4-.74-2.22,.51-2.79,5.84-5.3,8.35-6.32,1.86-3.31,3.27-7.39,4.25-10.22-1.67-3.85-2.08-7.66-1.04-9.51,.43-.73,1.2-1.21,2.06-1.24m-.1,8.92c.51-1.74,.92-3.69,1.02-5.59,0-.8-.16-1.76-.94-1.76-.31,0-.57,.19-.71,.46-.49,.86-.67,3.33,.63,6.89m-.82,10.51c2.11-.7,4.72-1.26,4.8-1.26h0c-.69-.75-2-2.41-2.78-3.73-.35,1.03-1.33,3.58-2.02,4.98m13.26,2.12c.94,0,1.46-.49,1.54-.99,.18-.98-.57-1.36-1.23-1.49-.67-.13-1.44-.18-2.2-.18-1.31,0-2.59,.14-3.29,.26,1.29,1.09,2.82,1.88,4.45,2.3,.27,.06,.51,.09,.73,.09m-23.65,7.01c1.18,0,3.21-2.14,5.27-5.53-3.49,1.59-5.84,3.35-6.06,4.56-.06,.29,.04,.59,.27,.77,.14,.13,.35,.19,.53,.19M23.82,9.75h0c-.89,.02-1.73,.52-2.19,1.31-1.06,1.88-.66,5.73,1.01,9.59v.02c-1.01,2.88-2.37,6.81-4.19,10.07-2.39,.98-7.86,3.52-8.39,6.42-.17,.86,.12,1.75,.78,2.36,.59,.54,1.36,.84,2.18,.84h.09c3.27,0,6.52-4.62,8.67-8.51,.92-.33,3.93-1.34,7.49-2.01,3.41,3.03,6.47,3.49,7.99,3.49,2.17,0,2.98-.98,3.28-1.79,.33-.94,.13-1.99-.52-2.75-1.02-1.12-2.93-1.68-5.66-1.68-1.34,0-2.82,.14-4.41,.4-2.17-2.18-3.63-4.69-4.07-5.51,.86-2.54,1.34-5.02,1.42-7.39,0-2.34-.91-4.85-3.48-4.85h0Zm-.12,8.58c-1.21-3.54-.86-5.67-.49-6.32,.13-.24,.35-.39,.58-.39,.65,0,.79,.87,.79,1.61-.08,1.57-.38,3.28-.89,5.1h0Zm-.51,10.75c.62-1.33,1.39-3.31,1.77-4.38,.74,1.19,1.79,2.53,2.45,3.28-.71,.15-2.6,.59-4.22,1.1h0Zm8.15,.08c.73-.11,1.83-.21,2.94-.21,.84,0,1.57,.06,2.17,.18,.6,.11,1.27,.43,1.11,1.31-.07,.43-.53,.86-1.39,.86-.22,0-.45-.03-.69-.08-1.49-.38-2.91-1.09-4.13-2.06h0Zm-18.83,9.16c-.16,0-.33-.06-.43-.15-.19-.16-.27-.39-.22-.63,.2-1.1,2.35-2.74,5.53-4.25-1.93,3.07-3.82,5.03-4.88,5.03h0Z"/></g></svg>