<?xml version="1.0" encoding="UTF-8"?><svg id="Layer_1" xmlns="http://www.w3.org/2000/svg" xmlns:xlink="http://www.w3.org/1999/xlink" viewBox="0 0 50 50"><defs><style>.cls-1{fill:url(#linear-gradient-2);}.cls-2{fill:url(#radial-gradient-5);}.cls-3{fill:url(#radial-gradient-4);}.cls-4{filter:url(#drop-shadow-1);}.cls-5{fill:url(#radial-gradient);}.cls-6{fill:url(#radial-gradient-2);}.cls-7{fill:url(#radial-gradient-3);}.cls-8{fill:none;stroke:#d0d0d0;stroke-miterlimit:10;stroke-width:.25px;}.cls-9{fill:url(#linear-gradient);}</style><filter id="drop-shadow-1" filterUnits="userSpaceOnUse"><feOffset dx=".5" dy=".5"/><feGaussianBlur result="blur" stdDeviation=".5"/><feFlood flood-color="#000" flood-opacity=".39"/><feComposite in2="blur" operator="in"/><feComposite in="SourceGraphic"/></filter><radialGradient id="radial-gradient" cx="25.46" cy="34.46" fx="9.69" fy="27.84" r="19.3" gradientTransform="translate(0 13.5) scale(1 .61)" gradientUnits="userSpaceOnUse"><stop offset="0" stop-color="#fff"/><stop offset=".09" stop-color="#bff"/><stop offset=".31" stop-color="#7df"/><stop offset=".49" stop-color="#6cf"/><stop offset=".66" stop-color="#5af"/><stop offset=".87" stop-color="#17c"/><stop offset=".95" stop-color="#16b"/><stop offset="1" stop-color="#047"/></radialGradient><radialGradient id="radial-gradient-2" cx="26.97" cy="35.58" fx="26.97" fy="35.58" r="18.93" gradientTransform="translate(-.36 35.34) rotate(-8.86) scale(1 .13)" gradientUnits="userSpaceOnUse"><stop offset=".09" stop-color="#7df"/><stop offset=".18" stop-color="#6cf"/><stop offset=".36" stop-color="#5af"/><stop offset=".53" stop-color="#17c"/><stop offset=".69" stop-color="#16b"/><stop offset=".76" stop-color="#047"/></radialGradient><radialGradient id="radial-gradient-3" cx="22.27" cy="22.56" fx="22.27" fy="22.56" r="14.96" gradientTransform="translate(.2 30) rotate(-13.4) scale(1 .13)" xlink:href="#radial-gradient-2"/><linearGradient id="linear-gradient" x1="16.53" y1="22.45" x2="21.28" y2="20.93" gradientTransform="matrix(1, 0, 0, 1, 0, 0)" gradientUnits="userSpaceOnUse"><stop offset=".03" stop-color="#515151"/><stop offset=".21" stop-color="#fff"/><stop offset=".5" stop-color="#888"/><stop offset=".84" stop-color="#222"/><stop offset="1" stop-color="#131313"/></linearGradient><linearGradient id="linear-gradient-2" x1="28.2" y1="25.57" x2="34.21" y2="26.46" xlink:href="#linear-gradient"/><radialGradient id="radial-gradient-4" cx="16" cy="13" fx="16" fy="13" r="6" gradientTransform="matrix(1, 0, 0, 1, 0, 0)" gradientUnits="userSpaceOnUse"><stop offset="0" stop-color="#fff"/><stop offset=".11" stop-color="#bff"/><stop offset=".31" stop-color="#7df"/><stop offset=".49" stop-color="#6cf"/><stop offset=".66" stop-color="#5af"/><stop offset=".82" stop-color="#17c"/><stop offset=".95" stop-color="#16b"/><stop offset="1" stop-color="#047"/></radialGradient><radialGradient id="radial-gradient-5" cx="34" fx="34" r="8" xlink:href="#radial-gradient-4"/></defs><path class="cls-8" d="M9.18,.5h31.65c4.8,0,8.68,3.98,8.68,8.9v31.2c0,4.92-3.88,8.9-8.68,8.9H9.18c-4.8,0-8.68-3.98-8.68-8.9V9.4C.5,4.48,4.38,.5,9.18,.5Z"/><path class="cls-4" d="M34.64,24.5l1.17-3.72c3.55-.82,6.19-3.99,6.19-7.79,0-4.42-3.58-8-8-8s-8,3.58-8,8c0,2.46,1.12,4.67,2.87,6.13l-.47,4.02c-.94-.09-1.89-.15-2.9-.15-1.45,0-2.84,.1-4.17,.28l-.89-6.25c.97-1.07,1.57-2.48,1.57-4.03,0-3.31-2.69-6-6-6s-6,2.69-6,6c0,2.9,2.05,5.31,4.78,5.88l2.23,5.35c-6.69,2.04-11.01,6.36-11.01,10.77,0,6.08,8.68,10,20,10s18-3.92,18-10c0-4.22-3.46-8.35-9.36-10.5Z"/><g><path class="cls-5" d="M44,35c0,6.08-6.68,10-18,10s-20-3.92-20-10,8.18-12,19.5-12,18.5,5.92,18.5,12Z"/><path class="cls-6" d="M17.21,38.72c-.77,.13-1.23-.83-.65-1.35,1.36-1.23,5.57-2.79,8.45-3.37s9.93-.14,12.71,.33c.59,.1,.59,.94,0,1.04-1.75,.28-7.71,.63-12.71,1.63-3.86,.77-6.27,1.45-7.79,1.72Z"/><path class="cls-7" d="M15.24,30.81c-.77,.14-1.24-.81-.67-1.34,1.35-1.24,5.54-2.86,8.4-3.47s4.92-.2,7.71,.24c.59,.09,.6,.94,.01,1.04-1.75,.3-2.7,.66-7.69,1.72-3.85,.82-6.26,1.53-7.77,1.81Z"/><path class="cls-9" d="M14,17l4.68,11.24c.18,.43,.66,.65,1.1,.5l1.51-.5c.41-.14,.66-.54,.6-.97l-1.9-13.27-6,3Z"/><path class="cls-1" d="M29,18l-1.81,15.49c-.11,.86,.44,1.66,1.28,1.87l.99,.25c.87,.22,1.76-.27,2.04-1.12l5.5-17.5-8,1Z"/><circle class="cls-3" cx="16" cy="13" r="6"/><circle class="cls-2" cx="34" cy="13" r="8"/></g></svg>