<?xml version="1.0" encoding="UTF-8"?><svg id="Layer_1" xmlns="http://www.w3.org/2000/svg" viewBox="0 0 50 50"><defs><style>.cls-1{fill:#fff;}.cls-2{fill:#7c7c7c;}.cls-3{fill:#d0d0d0;}</style></defs><path class="cls-3" d="M9.18,.5h31.65c4.8,0,8.68,3.98,8.68,8.9v31.2c0,4.92-3.88,8.9-8.68,8.9H9.18c-4.8,0-8.68-3.98-8.68-8.9V9.4C.5,4.48,4.38,.5,9.18,.5Z"/><g><g id="path0_fill"><path class="cls-1" d="M17.5,47.58c-4.18,0-7.58-3.4-7.58-7.58s3.4-7.58,7.58-7.58h7.58v7.58c0,4.18-3.4,7.58-7.58,7.58Z"/><path class="cls-2" d="M25,32.5v7.5c0,4.14-3.36,7.5-7.5,7.5s-7.5-3.36-7.5-7.5,3.36-7.5,7.5-7.5h7.5m.15-.15h-7.65c-4.22,0-7.65,3.43-7.65,7.65s3.43,7.65,7.65,7.65,7.65-3.43,7.65-7.65v-7.65h0Z"/></g><g id="path1_fill"><path class="cls-1" d="M17.5,32.58c-4.18,0-7.58-3.4-7.58-7.58s3.4-7.58,7.58-7.58h7.58v15.15h-7.58Z"/><path class="cls-2" d="M25,17.5v15h-7.5c-4.14,0-7.5-3.36-7.5-7.5s3.36-7.5,7.5-7.5h7.5m.15-.15h-7.65c-4.22,0-7.65,3.43-7.65,7.65s3.43,7.65,7.65,7.65h7.65v-15.3h0Z"/></g><g id="path1_fill-2"><path class="cls-1" d="M17.5,17.58c-4.18,0-7.58-3.4-7.58-7.58s3.4-7.58,7.58-7.58h7.58v15.15h-7.58Z"/><path class="cls-2" d="M25,2.5v15h-7.5c-4.14,0-7.5-3.36-7.5-7.5s3.36-7.5,7.5-7.5h7.5m.15-.15h-7.65c-4.22,0-7.65,3.43-7.65,7.65s3.43,7.65,7.65,7.65h7.65V2.35h0Z"/></g><g id="path2_fill"><path class="cls-1" d="M24.92,17.58V2.42h7.58c4.18,0,7.58,3.4,7.58,7.58s-3.4,7.58-7.58,7.58h-7.58Z"/><path class="cls-2" d="M32.5,2.5c4.14,0,7.5,3.36,7.5,7.5s-3.36,7.5-7.5,7.5h-7.5V2.5h7.5m0-.15h-7.65v15.3h7.65c4.22,0,7.65-3.43,7.65-7.65s-3.43-7.65-7.65-7.65h0Z"/></g><g id="path3_fill"><circle class="cls-1" cx="32.5" cy="25" r="7.58"/><path class="cls-2" d="M32.5,17.5c4.14,0,7.5,3.36,7.5,7.5s-3.36,7.5-7.5,7.5-7.5-3.36-7.5-7.5,3.36-7.5,7.5-7.5m0-.15c-4.22,0-7.65,3.43-7.65,7.65s3.43,7.65,7.65,7.65,7.65-3.43,7.65-7.65-3.43-7.65-7.65-7.65h0Z"/></g></g></svg>