<?xml version="1.0" encoding="UTF-8"?><svg id="Layer_1" xmlns="http://www.w3.org/2000/svg" viewBox="0 0 50 50"><defs><style>.cls-1{fill:#264de4;}.cls-2{fill:#fff;}.cls-3{fill:#2965f1;}.cls-4{fill:#ebebeb;}</style></defs><polygon id="polygon2989" class="cls-1" points="49.5 .5 45.04 44.59 24.97 49.5 4.96 44.6 .5 .5 49.5 .5"/><polygon id="polygon2991" class="cls-3" points="25 45.75 25 4.11 45.03 4.11 41.21 41.79 25 45.75"/><polygon id="polygon2993" class="cls-4" points="25 20.46 25 25.87 11.27 25.87 10.72 20.46 25 20.46"/><polygon id="polygon2995" class="cls-4" points="25 14.92 10.18 14.92 9.62 9.51 24.98 9.51 25 9.51 25 14.92"/><polygon id="polygon2997" class="cls-4" points="24.97 40.14 12.41 37.07 11.55 28.58 14.38 28.58 17.7 28.58 18.14 32.89 24.97 34.52 25 34.51 25 40.14 24.97 40.14"/><polygon id="polygon3005" class="cls-2" points="24.98 25.87 24.98 20.46 33.06 20.46 33.62 14.92 24.98 14.92 24.98 9.51 40.35 9.51 37.55 37.07 24.98 40.14 24.98 34.51 31.82 32.89 32.53 25.87 24.98 25.87"/></svg>