<?xml version="1.0" encoding="UTF-8"?><svg id="Layer_1" xmlns="http://www.w3.org/2000/svg" viewBox="0 0 50 50"><defs><style>.cls-1{fill:#ff7021;}.cls-2{fill:none;stroke:#d0d0d0;stroke-miterlimit:10;stroke-width:.25px;}.cls-3{fill:#005385;}</style></defs><path class="cls-2" d="M9.18,.5h31.65c4.8,0,8.68,3.98,8.68,8.9v31.2c0,4.92-3.88,8.9-8.68,8.9H9.18c-4.8,0-8.68-3.98-8.68-8.9V9.4C.5,4.48,4.38,.5,9.18,.5Z"/><g><path class="cls-1" d="M15.99,30.98c.01,.66,.21,1.94,.49,2.95h0c.61,2.12,1.64,4.09,3.09,5.82h0c1.48,1.78,3.3,3.21,5.4,4.22h0c2.21,1.07,4.61,1.61,7.09,1.61h0c2.48,0,4.88-.56,7.09-1.63h0c2.1-1.02,3.92-2.46,5.4-4.24h0c1.44-1.74,2.47-3.71,3.08-5.83h0c.31-1.07,.5-2.16,.58-3.26h0c.08-1.08,.04-2.16-.1-3.23h0c-.27-2.1-.94-4.07-1.97-5.87-.94-1.65-2.15-3.1-3.59-4.31h0L28.03,5.05h0l-.04-.03h0c-.96-.8-2.56-.79-3.6,0h0c-1.06,.81-1.18,2.14-.24,2.99h0l6.06,5.37-18.47,.02h-.03c-1.53,0-2.99,1.09-3.28,2.47h0c-.3,1.41,.74,2.57,2.33,2.58h9.36L3.41,32.41h0s-.04,.03-.06,.05h0c-1.57,1.31-2.08,3.5-1.09,4.89h0c1.01,1.41,3.15,1.41,4.74,0h0l9.12-8.13s-.13,1.1-.12,1.76Zm23.42,3.67c-1.88,2.09-4.51,3.27-7.35,3.27h0c-2.85,0-5.48-1.17-7.36-3.25h0c-.92-1.02-1.59-2.18-2.01-3.43h0c-.41-1.22-.57-2.52-.46-3.83h0c.1-1.28,.45-2.5,1.01-3.6h0c.55-1.09,1.3-2.07,2.24-2.9h0c1.83-1.62,4.15-2.5,6.58-2.5h0c2.43,0,4.76,.87,6.58,2.48h0c.93,.83,1.68,1.8,2.23,2.89h0c.56,1.1,.91,2.32,1.01,3.6h0c.1,1.31-.05,2.6-.46,3.83h0c-.42,1.25-1.09,2.41-2.01,3.43Z"/><path class="cls-3" d="M25.99,27.56c.09-1.69,.85-3.18,1.99-4.23h0c1.12-1.04,2.64-1.67,4.29-1.67h0c1.65,0,3.16,.63,4.29,1.67h0c1.14,1.06,1.9,2.54,1.99,4.23,.09,1.74-.55,3.35-1.68,4.55h0c-1.14,1.22-2.78,1.98-4.6,1.98h0c-1.83,0-3.46-.76-4.6-1.98h0c-1.12-1.19-1.76-2.81-1.67-4.55Z"/></g></svg>